<svg id="Group_31548" data-name="Group 31548" xmlns="http://www.w3.org/2000/svg" xmlns:xlink="http://www.w3.org/1999/xlink" width="213.052" height="211.368" viewBox="0 0 213.052 211.368">
  <defs>
    <clipPath id="clip-path">
      <rect id="Rectangle_81159" data-name="Rectangle 81159" width="213.052" height="211.368" fill="none"/>
    </clipPath>
    <linearGradient id="linear-gradient" x1="0.5" y1="0.248" x2="0.5" y2="1" gradientUnits="objectBoundingBox">
      <stop offset="0" stop-color="#003b5c"/>
      <stop offset="1" stop-color="#000c12"/>
    </linearGradient>
    <clipPath id="clip-path-5">
      <rect id="Rectangle_81127" data-name="Rectangle 81127" width="8.561" height="8.58" fill="none"/>
    </clipPath>
    <clipPath id="clip-path-6">
      <rect id="Rectangle_81128" data-name="Rectangle 81128" width="9.12" height="9.14" fill="none"/>
    </clipPath>
    <clipPath id="clip-path-7">
      <rect id="Rectangle_81129" data-name="Rectangle 81129" width="9.681" height="9.702" fill="none"/>
    </clipPath>
    <clipPath id="clip-path-8">
      <rect id="Rectangle_81130" data-name="Rectangle 81130" width="10.11" height="10.133" fill="none"/>
    </clipPath>
    <clipPath id="clip-path-9">
      <rect id="Rectangle_81131" data-name="Rectangle 81131" width="10.449" height="10.473" fill="none"/>
    </clipPath>
    <clipPath id="clip-path-10">
      <rect id="Rectangle_81132" data-name="Rectangle 81132" width="11.388" height="11.413" fill="none"/>
    </clipPath>
    <clipPath id="clip-path-11">
      <rect id="Rectangle_81133" data-name="Rectangle 81133" width="8.269" height="8.288" fill="none"/>
    </clipPath>
    <clipPath id="clip-path-12">
      <rect id="Rectangle_81134" data-name="Rectangle 81134" width="7.675" height="7.692" fill="none"/>
    </clipPath>
    <clipPath id="clip-path-13">
      <rect id="Rectangle_81135" data-name="Rectangle 81135" width="7.011" height="7.027" fill="none"/>
    </clipPath>
    <clipPath id="clip-path-14">
      <rect id="Rectangle_81137" data-name="Rectangle 81137" width="7.224" height="11.402" fill="none"/>
    </clipPath>
    <clipPath id="clip-path-15">
      <rect id="Rectangle_81138" data-name="Rectangle 81138" width="7.223" height="11.402" fill="none"/>
    </clipPath>
    <clipPath id="clip-path-16">
      <rect id="Rectangle_81139" data-name="Rectangle 81139" width="6.138" height="10.614" fill="none"/>
    </clipPath>
    <clipPath id="clip-path-17">
      <rect id="Rectangle_81140" data-name="Rectangle 81140" width="6.875" height="11.402" fill="none"/>
    </clipPath>
    <clipPath id="clip-path-19">
      <rect id="Rectangle_81142" data-name="Rectangle 81142" width="10.806" height="4.655" fill="none"/>
    </clipPath>
    <clipPath id="clip-path-20">
      <rect id="Rectangle_81143" data-name="Rectangle 81143" width="8.94" height="1.304" fill="none"/>
    </clipPath>
    <clipPath id="clip-path-21">
      <rect id="Rectangle_81144" data-name="Rectangle 81144" width="26.201" height="18.707" fill="none"/>
    </clipPath>
    <clipPath id="clip-path-22">
      <rect id="Rectangle_81145" data-name="Rectangle 81145" width="19.163" height="12.641" fill="none"/>
    </clipPath>
    <clipPath id="clip-path-23">
      <rect id="Rectangle_81146" data-name="Rectangle 81146" width="7.843" height="23.277" fill="none"/>
    </clipPath>
    <clipPath id="clip-path-25">
      <rect id="Rectangle_81148" data-name="Rectangle 81148" width="19.59" height="6.544" fill="none"/>
    </clipPath>
    <clipPath id="clip-path-26">
      <rect id="Rectangle_81149" data-name="Rectangle 81149" width="20.151" height="1.812" fill="none"/>
    </clipPath>
    <clipPath id="clip-path-27">
      <rect id="Rectangle_81150" data-name="Rectangle 81150" width="33.034" height="10.447" fill="none"/>
    </clipPath>
    <clipPath id="clip-path-28">
      <rect id="Rectangle_81151" data-name="Rectangle 81151" width="12.894" height="13.931" fill="none"/>
    </clipPath>
    <clipPath id="clip-path-29">
      <rect id="Rectangle_81152" data-name="Rectangle 81152" width="11.649" height="8.018" fill="none"/>
    </clipPath>
    <clipPath id="clip-path-30">
      <rect id="Rectangle_81153" data-name="Rectangle 81153" width="7.201" height="6.446" fill="none"/>
    </clipPath>
    <clipPath id="clip-path-31">
      <rect id="Rectangle_81154" data-name="Rectangle 81154" width="11.859" height="3.036" fill="none"/>
    </clipPath>
    <clipPath id="clip-path-32">
      <rect id="Rectangle_81155" data-name="Rectangle 81155" width="8.872" height="2.895" fill="none"/>
    </clipPath>
  </defs>
  <g id="Group_31547" data-name="Group 31547" clip-path="url(#clip-path)">
    <path id="Path_44720" data-name="Path 44720" d="M133.406,376.735h22.45v-14.5h1.559v-4.054H132.471v3.679Z" transform="translate(-69.559 -188.077)" fill="#e0e0e0"/>
    <g id="Group_31458" data-name="Group 31458">
      <g id="Group_31457" data-name="Group 31457" clip-path="url(#clip-path)">
        <path id="Path_44721" data-name="Path 44721" d="M76.2,23.966A15.756,15.756,0,0,1,80.04,22.3l.792-3.8,6.426-.113.925,3.774a15.722,15.722,0,0,1,3.9,1.534l3.248-2.129,4.624,4.465-2.013,3.32a15.724,15.724,0,0,1,1.67,3.844l3.8.792.113,6.426-3.774.925a15.745,15.745,0,0,1-1.534,3.9l2.129,3.248L95.885,53.1l-3.321-2.014a15.733,15.733,0,0,1-3.843,1.67l-.792,3.8-6.426.113L80.577,52.9a15.746,15.746,0,0,1-3.9-1.534L73.43,53.5l-4.624-4.465,2.013-3.32a15.751,15.751,0,0,1-1.67-3.843l-3.8-.792-.113-6.426,3.773-.925a15.774,15.774,0,0,1,1.534-3.9l-2.129-3.248,4.464-4.624Zm3.426,8.561a6.9,6.9,0,1,0,9.75-.171,6.9,6.9,0,0,0-9.75.171" transform="translate(-34.253 -9.651)" fill="#00516f"/>
        <path id="Path_44722" data-name="Path 44722" d="M291.589,6.655a18.718,18.718,0,0,1,4.577-1.989l.943-4.531L304.764,0l1.1,4.494a18.767,18.767,0,0,1,4.645,1.827l3.869-2.536L319.887,9.1l-2.4,3.955a18.76,18.76,0,0,1,1.989,4.579l4.53.942.135,7.656-4.495,1.1a18.763,18.763,0,0,1-1.827,4.644l2.535,3.869-5.317,5.508-3.956-2.4a18.783,18.783,0,0,1-4.578,1.989l-.943,4.53-7.655.135-1.1-4.5a18.758,18.758,0,0,1-4.645-1.827l-3.869,2.536-5.508-5.318,2.4-3.956a18.713,18.713,0,0,1-1.99-4.577l-4.53-.944-.134-7.654,4.495-1.1a18.781,18.781,0,0,1,1.827-4.644l-2.536-3.869,5.318-5.508Zm4.08,10.2a8.213,8.213,0,1,0,11.613-.2,8.214,8.214,0,0,0-11.613.2" transform="translate(-146.253 -0.001)" fill="#00516f"/>
        <path id="Path_44723" data-name="Path 44723" d="M297.188,139.135a14.638,14.638,0,0,1,3.576-1.554l.737-3.539,5.979-.1.861,3.511a14.646,14.646,0,0,1,3.628,1.427l3.022-1.981,4.3,4.154-1.873,3.089a14.648,14.648,0,0,1,1.554,3.576l3.539.737.1,5.98-3.511.861a14.65,14.65,0,0,1-1.427,3.628l1.98,3.022-4.154,4.3-3.089-1.874a14.641,14.641,0,0,1-3.576,1.554l-.737,3.539-5.979.1-.861-3.511a14.66,14.66,0,0,1-3.627-1.427l-3.022,1.981-4.3-4.154,1.873-3.089a14.632,14.632,0,0,1-1.554-3.576l-3.539-.737-.1-5.979,3.511-.861a14.66,14.66,0,0,1,1.427-3.627l-1.98-3.022,4.154-4.3Zm3.188,7.965a6.415,6.415,0,1,0,9.071-.16,6.415,6.415,0,0,0-9.071.16" transform="translate(-150.694 -70.329)" fill="#00516f"/>
        <path id="Path_44724" data-name="Path 44724" d="M369.4,102.949a8.128,8.128,0,0,1,1.986-.863l.409-1.967,3.322-.058.478,1.95a8.159,8.159,0,0,1,2.016.793l1.679-1.1,2.39,2.308-1.041,1.716a8.138,8.138,0,0,1,.863,1.987l1.966.409.058,3.322-1.95.478a8.139,8.139,0,0,1-.793,2.016l1.1,1.679-2.308,2.39-1.716-1.041a8.13,8.13,0,0,1-1.987.863l-.409,1.966-3.322.058-.478-1.95a8.13,8.13,0,0,1-2.016-.793l-1.679,1.1-2.39-2.308,1.041-1.716a8.117,8.117,0,0,1-.863-1.987l-1.966-.409-.058-3.322,1.95-.478a8.162,8.162,0,0,1,.793-2.015l-1.1-1.679,2.308-2.39Zm1.77,4.425a3.564,3.564,0,1,0,5.039-.088,3.564,3.564,0,0,0-5.039.088" transform="translate(-190.994 -52.541)" fill="#009cd6"/>
        <path id="Path_44725" data-name="Path 44725" d="M169.564,10.837a8.159,8.159,0,0,1,1.987-.863l.409-1.966,3.322-.058.478,1.95a8.166,8.166,0,0,1,2.016.793l1.679-1.1,2.39,2.308L180.8,13.617a8.123,8.123,0,0,1,.863,1.987l1.966.409.058,3.322-1.95.478a8.14,8.14,0,0,1-.793,2.016l1.1,1.679-2.308,2.39-1.716-1.041a8.139,8.139,0,0,1-1.987.863l-.409,1.966-3.322.058-.478-1.95A8.122,8.122,0,0,1,169.813,25l-1.679,1.1-2.39-2.308,1.041-1.716a8.117,8.117,0,0,1-.863-1.987l-1.966-.409-.058-3.322,1.95-.478a8.144,8.144,0,0,1,.793-2.015l-1.1-1.679,2.308-2.39Zm1.771,4.425a3.564,3.564,0,1,0,5.039-.088,3.565,3.565,0,0,0-5.039.088" transform="translate(-86.061 -4.174)" fill="#009cd6"/>
        <path id="Path_44726" data-name="Path 44726" d="M106.577,123.789a8.158,8.158,0,0,1,1.987-.863l.409-1.966,3.322-.058.478,1.95a8.158,8.158,0,0,1,2.016.793l1.679-1.1,2.39,2.308-1.041,1.716a8.138,8.138,0,0,1,.863,1.987l1.966.409.058,3.322-1.95.478a8.14,8.14,0,0,1-.793,2.016l1.1,1.679-2.308,2.39-1.716-1.041a8.139,8.139,0,0,1-1.987.863l-.409,1.966-3.322.058-.478-1.95a8.147,8.147,0,0,1-2.016-.793l-1.679,1.1-2.39-2.308,1.041-1.716a8.106,8.106,0,0,1-.863-1.987l-1.966-.409-.058-3.322,1.95-.478a8.155,8.155,0,0,1,.793-2.015l-1.1-1.679,2.308-2.39Zm1.771,4.425a3.564,3.564,0,1,0,5.039-.089,3.564,3.564,0,0,0-5.039.089" transform="translate(-52.987 -63.484)" fill="#009cd6"/>
      </g>
    </g>
    <g id="Group_31460" data-name="Group 31460">
      <g id="Group_31459" data-name="Group 31459" clip-path="url(#clip-path)">
        <path id="Path_44727" data-name="Path 44727" d="M205.274,437.115c0,.068-45.222.123-100.993.123-55.791,0-101-.055-101-.123s45.212-.124,101-.124c55.771,0,100.993.055,100.993.124" transform="translate(-1.721 -229.459)" fill="#263238"/>
      </g>
    </g>
    <g id="Group_31501" data-name="Group 31501">
      <g id="Group_31500" data-name="Group 31500" clip-path="url(#clip-path)">
        <path id="Path_44728" data-name="Path 44728" d="M205.28,226.439l-61.589-.038c-7.407,0-13.409-6.317-13.408-14.1l.03-162.264c0-7.789,6.012-14.1,13.424-14.1l61.589.038c7.407,0,13.409,6.317,13.408,14.1l-.03,162.264c0,7.789-6.012,14.1-13.424,14.1" transform="translate(-68.41 -18.871)" fill="#263238"/>
        <path id="Path_44729" data-name="Path 44729" d="M209.772,48.062l-11.941-.007a3.051,3.051,0,0,0-2.9,3.183v2.276a3.05,3.05,0,0,1-2.9,3.184l-23.275-.014a3.054,3.054,0,0,1-2.9-3.188V51.221a3.055,3.055,0,0,0-2.9-3.188l-4.2,0-10.451-.006a9.643,9.643,0,0,0-9.4,9.872l-.029,158.381a9.644,9.644,0,0,0,9.39,9.876l61.466.038a9.643,9.643,0,0,0,9.4-9.872l.03-158.382a9.645,9.645,0,0,0-9.39-9.876" transform="translate(-72.922 -25.217)" fill="url(#linear-gradient)"/>
        <g id="Group_31551" data-name="Group 31551" transform="translate(83.592 82.959)">
          <path id="Path_44730" data-name="Path 44730" d="M237.719,207.13a4.281,4.281,0,1,1-4.28-4.29,4.285,4.285,0,0,1,4.28,4.29" transform="translate(-203.92 -165.725)" fill="#00a0f8"/>
          <path id="Path_44731" data-name="Path 44731" d="M210.927,206.822a4.56,4.56,0,1,1-4.56-4.57,4.565,4.565,0,0,1,4.56,4.57" transform="translate(-189.559 -165.417)" fill="#00a0f8"/>
          <path id="Path_44732" data-name="Path 44732" d="M190.325,189.486a4.84,4.84,0,1,1-4.84-4.851,4.846,4.846,0,0,1,4.84,4.851" transform="translate(-178.446 -156.166)" fill="#00a0f8"/>
          <path id="Path_44733" data-name="Path 44733" d="M186.126,163.072a5.055,5.055,0,1,1-5.055-5.066,5.061,5.061,0,0,1,5.055,5.066" transform="translate(-176.016 -142.183)" fill="#00a0f8"/>
          <path id="Path_44734" data-name="Path 44734" d="M199.145,139.969a5.225,5.225,0,1,1-5.224-5.236,5.23,5.23,0,0,1,5.224,5.236" transform="translate(-182.674 -129.963)" fill="#00a0f8"/>
          <path id="Path_44735" data-name="Path 44735" d="M224.148,130.4a5.694,5.694,0,1,1-5.694-5.707,5.7,5.7,0,0,1,5.694,5.707" transform="translate(-195.31 -124.689)" fill="#00a0f8"/>
          <path id="Path_44736" data-name="Path 44736" d="M257.62,190.057a4.135,4.135,0,1,1-4.135-4.144,4.139,4.139,0,0,1,4.135,4.144" transform="translate(-214.523 -156.836)" fill="#00a0f8"/>
          <path id="Path_44737" data-name="Path 44737" d="M262.311,164.129a3.837,3.837,0,1,1-3.837-3.846,3.842,3.842,0,0,1,3.837,3.846" transform="translate(-217.299 -143.379)" fill="#00a0f8"/>
          <path id="Path_44738" data-name="Path 44738" d="M248.908,141.572a3.506,3.506,0,1,1-3.506-3.513,3.509,3.509,0,0,1,3.506,3.513" transform="translate(-210.61 -131.709)" fill="#00a0f8"/>
        </g>
        <g id="Group_31550" data-name="Group 31550" transform="translate(83.592 82.959)">
          <g id="Group_31463" data-name="Group 31463" transform="translate(25.238 37.115)" opacity="0.5">
            <g id="Group_31462" data-name="Group 31462">
              <g id="Group_31461" data-name="Group 31461" clip-path="url(#clip-path-5)">
                <path id="Path_44739" data-name="Path 44739" d="M237.719,207.13a4.281,4.281,0,1,1-4.28-4.29,4.285,4.285,0,0,1,4.28,4.29" transform="translate(-229.158 -202.84)" fill="#fff"/>
              </g>
            </g>
          </g>
          <g id="Group_31466" data-name="Group 31466" transform="translate(12.249 36.835)" opacity="0.4">
            <g id="Group_31465" data-name="Group 31465">
              <g id="Group_31464" data-name="Group 31464" clip-path="url(#clip-path-6)">
                <path id="Path_44740" data-name="Path 44740" d="M210.927,206.822a4.56,4.56,0,1,1-4.56-4.57,4.565,4.565,0,0,1,4.56,4.57" transform="translate(-201.807 -202.252)" fill="#fff"/>
              </g>
            </g>
          </g>
          <g id="Group_31469" data-name="Group 31469" transform="translate(2.198 28.469)" opacity="0.3">
            <g id="Group_31468" data-name="Group 31468">
              <g id="Group_31467" data-name="Group 31467" clip-path="url(#clip-path-7)">
                <path id="Path_44741" data-name="Path 44741" d="M190.325,189.486a4.84,4.84,0,1,1-4.84-4.851,4.846,4.846,0,0,1,4.84,4.851" transform="translate(-180.644 -184.635)" fill="#fff"/>
              </g>
            </g>
          </g>
          <g id="Group_31472" data-name="Group 31472" transform="translate(0 15.822)" opacity="0.2">
            <g id="Group_31471" data-name="Group 31471">
              <g id="Group_31470" data-name="Group 31470" clip-path="url(#clip-path-8)">
                <path id="Path_44742" data-name="Path 44742" d="M186.126,163.072a5.055,5.055,0,1,1-5.055-5.066,5.061,5.061,0,0,1,5.055,5.066" transform="translate(-176.016 -158.006)" fill="#fff"/>
              </g>
            </g>
          </g>
          <g id="Group_31475" data-name="Group 31475" transform="translate(6.021 4.77)" opacity="0.1">
            <g id="Group_31474" data-name="Group 31474">
              <g id="Group_31473" data-name="Group 31473" clip-path="url(#clip-path-9)">
                <path id="Path_44743" data-name="Path 44743" d="M199.145,139.969a5.225,5.225,0,1,1-5.224-5.236,5.23,5.23,0,0,1,5.224,5.236" transform="translate(-188.696 -134.733)" fill="#fff"/>
              </g>
            </g>
          </g>
          <g id="Group_31478" data-name="Group 31478" transform="translate(17.45)" opacity="0.2">
            <g id="Group_31477" data-name="Group 31477">
              <g id="Group_31476" data-name="Group 31476" clip-path="url(#clip-path-10)">
                <path id="Path_44744" data-name="Path 44744" d="M224.148,130.4a5.694,5.694,0,1,1-5.694-5.707,5.7,5.7,0,0,1,5.694,5.707" transform="translate(-212.76 -124.689)" fill="#fff"/>
              </g>
            </g>
          </g>
          <g id="Group_31481" data-name="Group 31481" transform="translate(34.828 29.075)" opacity="0.6">
            <g id="Group_31480" data-name="Group 31480">
              <g id="Group_31479" data-name="Group 31479" clip-path="url(#clip-path-11)">
                <path id="Path_44745" data-name="Path 44745" d="M257.62,190.057a4.135,4.135,0,1,1-4.135-4.144,4.139,4.139,0,0,1,4.135,4.144" transform="translate(-249.352 -185.913)" fill="#fff"/>
              </g>
            </g>
          </g>
          <g id="Group_31484" data-name="Group 31484" transform="translate(37.338 16.904)" opacity="0.7">
            <g id="Group_31483" data-name="Group 31483">
              <g id="Group_31482" data-name="Group 31482" clip-path="url(#clip-path-12)">
                <path id="Path_44746" data-name="Path 44746" d="M262.311,164.129a3.837,3.837,0,1,1-3.837-3.846,3.842,3.842,0,0,1,3.837,3.846" transform="translate(-254.636 -160.283)" fill="#fff"/>
              </g>
            </g>
          </g>
          <g id="Group_31487" data-name="Group 31487" transform="translate(31.288 6.349)" opacity="0.8">
            <g id="Group_31486" data-name="Group 31486">
              <g id="Group_31485" data-name="Group 31485" clip-path="url(#clip-path-13)">
                <path id="Path_44747" data-name="Path 44747" d="M248.908,141.572a3.506,3.506,0,1,1-3.506-3.513,3.509,3.509,0,0,1,3.506,3.513" transform="translate(-241.897 -138.059)" fill="#fff"/>
              </g>
            </g>
          </g>
        </g>
        <g id="Group_31549" data-name="Group 31549" transform="translate(77.009 140.029)">
          <g id="Group_31552" data-name="Group 31552" transform="translate(16.074 17.549)">
            <path id="Path_44748" data-name="Path 44748" d="M196,296.655a1.512,1.512,0,0,1,1.578-1.533,1.456,1.456,0,0,1,1.1.439l-.2.2a1.189,1.189,0,0,0-.89-.358,1.249,1.249,0,1,0,0,2.5,1.177,1.177,0,0,0,.89-.362l.2.2a1.462,1.462,0,0,1-1.105.444A1.511,1.511,0,0,1,196,296.655" transform="translate(-196.002 -295.122)" fill="#fff"/>
            <path id="Path_44749" data-name="Path 44749" d="M205.584,295.176v3.016h-.314V296.8h-1.883v1.391h-.318v-3.016h.318v1.345h1.883v-1.345Z" transform="translate(-199.713 -295.151)" fill="#fff"/>
            <path id="Path_44750" data-name="Path 44750" d="M212.554,297.916v.276h-2.128v-3.016h2.063v.276h-1.745v1.073H212.3v.272h-1.556v1.12Z" transform="translate(-203.576 -295.15)" fill="#fff"/>
            <path id="Path_44751" data-name="Path 44751" d="M215.882,296.655a1.512,1.512,0,0,1,1.578-1.533,1.456,1.456,0,0,1,1.1.439l-.2.2a1.189,1.189,0,0,0-.89-.358,1.249,1.249,0,1,0,0,2.5,1.177,1.177,0,0,0,.89-.362l.2.2a1.462,1.462,0,0,1-1.105.444,1.511,1.511,0,0,1-1.573-1.534" transform="translate(-206.441 -295.122)" fill="#fff"/>
            <path id="Path_44752" data-name="Path 44752" d="M223.882,296.774l-.615.625v.793h-.318v-3.016h.318V297l1.766-1.823h.366l-1.3,1.366,1.393,1.65h-.378Z" transform="translate(-210.152 -295.15)" fill="#fff"/>
            <rect id="Rectangle_81136" data-name="Rectangle 81136" width="0.318" height="3.016" transform="translate(15.853 0.026)" fill="#fff"/>
            <path id="Path_44753" data-name="Path 44753" d="M234.63,295.176v3.016h-.262l-1.934-2.447v2.447h-.318v-3.016h.262l1.939,2.447v-2.447Z" transform="translate(-214.965 -295.151)" fill="#fff"/>
            <path id="Path_44754" data-name="Path 44754" d="M241.3,296.655h.3v1.15a1.656,1.656,0,0,1-1.1.384,1.535,1.535,0,1,1,0-3.067,1.482,1.482,0,0,1,1.118.435l-.2.2a1.272,1.272,0,1,0-.911,2.145,1.3,1.3,0,0,0,.787-.232Z" transform="translate(-218.533 -295.122)" fill="#fff"/>
            <path id="Path_44755" data-name="Path 44755" d="M246.005,300.815a.228.228,0,0,1,.228-.233.231.231,0,0,1,.232.233.235.235,0,0,1-.232.237.232.232,0,0,1-.228-.237" transform="translate(-222.258 -297.989)" fill="#fff"/>
            <path id="Path_44756" data-name="Path 44756" d="M247.923,300.815a.228.228,0,0,1,.228-.233.231.231,0,0,1,.232.233.235.235,0,0,1-.232.237.232.232,0,0,1-.228-.237" transform="translate(-223.265 -297.989)" fill="#fff"/>
            <path id="Path_44757" data-name="Path 44757" d="M249.842,300.815a.228.228,0,0,1,.228-.233.232.232,0,0,1,.232.233.235.235,0,0,1-.232.237.232.232,0,0,1-.228-.237" transform="translate(-224.273 -297.989)" fill="#fff"/>
          </g>
          <path id="Path_44758" data-name="Path 44758" d="M215.064,269.975H167.751a5.33,5.33,0,0,1-5.33-5.33v-.88a5.33,5.33,0,0,1,5.33-5.33h47.313a5.33,5.33,0,0,1,5.33,5.33v.88a5.33,5.33,0,0,1-5.33,5.33" transform="translate(-162.295 -258.308)" fill="#f5f5f5"/>
          <path id="Path_44759" data-name="Path 44759" d="M189.316,269.975H167.751a5.33,5.33,0,0,1-5.33-5.33v-.88a5.33,5.33,0,0,1,5.33-5.33h21.565a5.33,5.33,0,0,1,5.33,5.33v.88a5.33,5.33,0,0,1-5.33,5.33" transform="translate(-162.295 -258.308)" fill="#00a0f8"/>
          <path id="Path_44760" data-name="Path 44760" d="M256.7,269.547c0,.6-.413,1.058-1.249,1.058a1.712,1.712,0,0,1-1.254-.481l.132-.2a1.5,1.5,0,0,0,1.116.439c.657,0,.994-.332.994-.807,0-.511-.311-.823-1.279-.823h-.724l.189-1.732h1.891v.235h-1.672l-.138,1.262h.51c1.086,0,1.483.413,1.483,1.046" transform="translate(-210.487 -262.808)" fill="#00a0f8"/>
          <path id="Path_44761" data-name="Path 44761" d="M262.64,269.547c0,.6-.413,1.058-1.249,1.058a1.713,1.713,0,0,1-1.254-.481l.133-.2a1.5,1.5,0,0,0,1.116.439c.657,0,.994-.332.994-.807,0-.511-.311-.823-1.279-.823h-.723l.189-1.732h1.891v.235h-1.672l-.138,1.262h.51c1.086,0,1.483.413,1.483,1.046" transform="translate(-213.605 -262.808)" fill="#00a0f8"/>
          <path id="Path_44762" data-name="Path 44762" d="M266.226,267.927c0-.582.321-.966.785-.966s.79.383.79.966-.326.965-.79.965-.785-.383-.785-.965m1.381,0c0-.5-.239-.792-.6-.792s-.591.3-.591.792.24.792.591.792.6-.3.6-.792m1.58-.945h.219l-2.436,3.575h-.219Zm-.831,2.63c0-.582.326-.965.79-.965s.785.383.785.965-.321.966-.785.966-.79-.383-.79-.966m1.381,0c0-.491-.239-.792-.591-.792s-.6.3-.6.792.24.792.6.792.591-.3.591-.792" transform="translate(-216.802 -262.785)" fill="#00a0f8"/>
          <g id="Group_31490" data-name="Group 31490" transform="translate(9.81 0.126)" opacity="0.2">
            <g id="Group_31489" data-name="Group 31489">
              <g id="Group_31488" data-name="Group 31488" clip-path="url(#clip-path-14)">
                <path id="Path_44763" data-name="Path 44763" d="M187.147,258.435l-4.335,11.4H186l4.039-11.4Z" transform="translate(-182.812 -258.435)" fill="#fff"/>
              </g>
            </g>
          </g>
          <g id="Group_31493" data-name="Group 31493" transform="translate(17.625 0.126)" opacity="0.2">
            <g id="Group_31492" data-name="Group 31492">
              <g id="Group_31491" data-name="Group 31491" clip-path="url(#clip-path-15)">
                <path id="Path_44764" data-name="Path 44764" d="M203.6,258.435l-4.335,11.4h3.184l4.039-11.4Z" transform="translate(-199.267 -258.435)" fill="#fff"/>
              </g>
            </g>
          </g>
          <g id="Group_31496" data-name="Group 31496" transform="translate(25.578 0.983)" opacity="0.2">
            <g id="Group_31495" data-name="Group 31495">
              <g id="Group_31494" data-name="Group 31494" clip-path="url(#clip-path-16)">
                <path id="Path_44765" data-name="Path 44765" d="M220.05,260.238l-4.035,10.615h1.9a7.432,7.432,0,0,0,1.461-.487l2.781-7.85a6.184,6.184,0,0,0-2.1-2.278" transform="translate(-216.015 -260.238)" fill="#fff"/>
              </g>
            </g>
          </g>
          <g id="Group_31499" data-name="Group 31499" transform="translate(2.565 0.126)" opacity="0.2">
            <g id="Group_31498" data-name="Group 31498">
              <g id="Group_31497" data-name="Group 31497" clip-path="url(#clip-path-17)">
                <path id="Path_44766" data-name="Path 44766" d="M171.542,258.435l-3.986,10.485a5.671,5.671,0,0,0,2.836.918l4.039-11.4Z" transform="translate(-167.556 -258.435)" fill="#fff"/>
              </g>
            </g>
          </g>
          <path id="Path_44767" data-name="Path 44767" d="M214.822,269.835a8.031,8.031,0,0,0,1.3-.189,5.41,5.41,0,0,0,3.039-2.068,5.294,5.294,0,0,0,.985-2.489,9.934,9.934,0,0,0,.035-1.552,5.115,5.115,0,0,0-.322-1.629,5.35,5.35,0,0,0-4.182-3.454,14.678,14.678,0,0,0-2.128-.07l-45.831.037a5.846,5.846,0,0,0-1.609.249,5.54,5.54,0,0,0-1.448.724,5.3,5.3,0,0,0-1.925,2.518,6.21,6.21,0,0,0,.973,5.962,5.309,5.309,0,0,0,2.547,1.63,11.045,11.045,0,0,0,3.023.21l5.956,0,20.6.027,13.891.04,3.776.024.982.013c.221,0,.335.013.335.013s-.113.009-.335.013l-.982.013-3.776.024-13.891.04-20.6.027-5.956,0h-1.53a5.84,5.84,0,0,1-1.56-.217,5.563,5.563,0,0,1-3.982-4.645,10.5,10.5,0,0,1-.036-1.639,5.2,5.2,0,0,1,.329-1.629,5.551,5.551,0,0,1,2.016-2.639,5.791,5.791,0,0,1,1.516-.758,6.111,6.111,0,0,1,1.686-.261l45.831.037a14.736,14.736,0,0,1,2.155.081,5.5,5.5,0,0,1,4.287,3.573,6.452,6.452,0,0,1-.752,5.776,5.416,5.416,0,0,1-3.106,2.059,3.974,3.974,0,0,1-.563.1,2.59,2.59,0,0,1-.411.034c-.222.007-.335,0-.335,0" transform="translate(-162.155 -258.169)" fill="#263238"/>
        </g>
        <path id="Path_44768" data-name="Path 44768" d="M169.923,391.236v3.878a.425.425,0,0,1-.653.36l-3.049-1.939a.427.427,0,0,1,0-.72l3.049-1.939a.425.425,0,0,1,.653.36" transform="translate(-87.177 -205.209)" fill="#e0e0e0"/>
        <path id="Path_44769" data-name="Path 44769" d="M221.074,392.753a2.673,2.673,0,1,1-2.673-2.679,2.676,2.676,0,0,1,2.673,2.679" transform="translate(-113.276 -204.824)" fill="#e0e0e0"/>
        <path id="Path_44770" data-name="Path 44770" d="M271.434,395.751h-3.156a.888.888,0,0,1-.888-.888V391.7a.888.888,0,0,1,.888-.888h3.156a.888.888,0,0,1,.888.888v3.167a.888.888,0,0,1-.888.888" transform="translate(-140.404 -205.209)" fill="#e0e0e0"/>
      </g>
      <g id="Solid_MyDStv-logo" data-name="Solid MyDStv-logo" transform="translate(74.821 44.291)">
        <path id="MyDStv-logo-2" d="M-3425.063,5279.911a35.735,35.735,0,0,1,3.331-10.7c-.725.268-4.831,6.562-5.644,8.269a3.083,3.083,0,0,1-1.422-1.024,28.454,28.454,0,0,1,1.693-6.887,15.715,15.715,0,0,0-2.191,3.011c-1.333,2.043-2.949,5.64-2.96,6.363-.515-.108-1.521-.746-1.422-1.326a29.757,29.757,0,0,1,3.547-5.48,17.133,17.133,0,0,1,2.844-3.136,1.96,1.96,0,0,1,1.627,1,51.819,51.819,0,0,0-1.488,5.088c1.184-1.753,4.083-5.885,5.35-6.477a1.8,1.8,0,0,1,1.622,1.007,42.226,42.226,0,0,0-3.375,11.041,1.542,1.542,0,0,0,.033.426A3.693,3.693,0,0,1-3425.063,5279.911Zm7.912-1.565a34.4,34.4,0,0,0-.985,3.358c-.044.279-.111.569-.149.961a.18.18,0,0,1-.11.035,2.2,2.2,0,0,1-1.14-.974,19.921,19.921,0,0,1,1.051-3.7c.25-.717.476-1.406,1.129-3.17a38.024,38.024,0,0,1-2.833,4.1c-.813.022-1.887-.734-1.865-1.36a20.149,20.149,0,0,1,2.291-5.236c.238-.312,1.4.466,1.322.5a4.6,4.6,0,0,0-.564.939,19.868,19.868,0,0,0-1.544,4.109c0,.08.022.125.067.125.37,0,4.3-5.736,4.548-5.782a1.9,1.9,0,0,1,1.14.569A29.753,29.753,0,0,0-3417.151,5278.346Zm3.195,1.4v-7.2c0-.057-.006-.12-.006-.176a.416.416,0,0,1,.454-.353c2.02,0,4.039-.023,6.059.017a11.628,11.628,0,0,1,4.3.785,4.228,4.228,0,0,1,2.152,1.725,3.236,3.236,0,0,1-.73,4.115,5.317,5.317,0,0,1-.576.427c-.066.045-.138.1-.11.193s.116.1.193.1c2.186,0,4.371,0,6.551-.012a2.43,2.43,0,0,0,.841-.159.666.666,0,0,0,.188-1.2,7.121,7.121,0,0,0-1.233-.717c-.952-.467-1.931-.882-2.844-1.428a3.462,3.462,0,0,1-1.018-.882,1.4,1.4,0,0,1,.149-1.969,3.089,3.089,0,0,1,1.809-.859,10.839,10.839,0,0,1,1.8-.136h9.4c.448,0,.559.119.559.575v1.137c0,.425.028.385.368.385,2.042,0,4.083.006,6.129-.006a.719.719,0,0,1,.664.361c1.043,1.532,2.1,3.052,3.146,4.578.189.27.223.275.418.006l3.458-4.646a.636.636,0,0,1,.569-.3c.245.012.479,0,.72,0,.072,0,.162-.022.2.058s-.039.138-.078.189l-1.628,2.2q-1.247,1.677-2.488,3.361a.685.685,0,0,1-.591.31h-12.494a2.089,2.089,0,0,1-1.505-.522,1.44,1.44,0,0,1-.5-1.216q.006-2.615.006-5.232c0-.418-.028-.447-.43-.447h-4.443a7.6,7.6,0,0,0-1.223.3.942.942,0,0,0-.371.262.538.538,0,0,0,.028.785,3.561,3.561,0,0,0,.9.6c.968.484,1.948.944,2.911,1.44a4.022,4.022,0,0,1,1.405,1.109,1.4,1.4,0,0,1-.111,1.924,3.223,3.223,0,0,1-1.842.888,6.067,6.067,0,0,1-1.544.108h-19.117A.506.506,0,0,1-3413.957,5279.746Zm4.466-6.928h-.841a.281.281,0,0,0-.276.285v5.942c0,.193.088.284.276.284a16.972,16.972,0,0,0,2.794-.125,5.136,5.136,0,0,0,2.324-.933,2.752,2.752,0,0,0,.554-3.83,3.773,3.773,0,0,0-1.931-1.264A8.818,8.818,0,0,0-3409.491,5272.818Zm27.149,6.623h2.907c.079,0,.19.046.235-.052s-.051-.15-.1-.213l-2.876-3.875a.518.518,0,0,0-.443-.23h-3.108c-.234,0-.294.056-.294.291,0,1.064,0,2.254.005,3.318a.657.657,0,0,0,.708.761Z" transform="translate(3433.686 -5268.593)" fill="#fff"/>
      </g>
    </g>
    <g id="Group_31518" data-name="Group 31518">
      <g id="Group_31517" data-name="Group 31517" clip-path="url(#clip-path)">
        <path id="Path_44771" data-name="Path 44771" d="M392.181,242.577a34.089,34.089,0,0,0,.323-5.874,11.913,11.913,0,0,0-1.611-5.6c-.157-.253-1.4-1.912-1.68-1.824-.2.062.677,1.665.609,1.867a10.1,10.1,0,0,0,.056,6,26.609,26.609,0,0,0,2.3,5.437" transform="translate(-204.356 -120.388)" fill="#263238"/>
        <path id="Path_44772" data-name="Path 44772" d="M367.514,253.547c-.29-1.356-.522-2.426-.533-2.424s-4.76.474-6-4.086c-.6-2.2-1.466-6.839-2.2-11.044a8.8,8.8,0,0,1,6.466-10.037l.442-.114c4.831-.955,8.341,2.615,9.162,7.471l3.412,16.894-7.5,7.955Z" transform="translate(-188.322 -118.506)" fill="#a76c4e"/>
        <path id="Path_44773" data-name="Path 44773" d="M376.2,275.6a11.417,11.417,0,0,0,5.5-3.3s-.551,3.766-5.223,4.536Z" transform="translate(-197.536 -142.978)" fill="#76472f"/>
        <path id="Path_44774" data-name="Path 44774" d="M363.889,254.15a.675.675,0,0,0,.8.5.645.645,0,0,0,.521-.763.676.676,0,0,0-.8-.5.646.646,0,0,0-.521.764" transform="translate(-191.066 -133.043)" fill="#263238"/>
        <path id="Path_44775" data-name="Path 44775" d="M362,249.663c.1.064.5-.43,1.207-.611s1.31.038,1.363-.068c.028-.047-.1-.18-.362-.285a1.852,1.852,0,0,0-1.119-.051,1.777,1.777,0,0,0-.933.592c-.173.222-.207.395-.157.423" transform="translate(-190.069 -130.53)" fill="#263238"/>
        <path id="Path_44776" data-name="Path 44776" d="M377.323,251.471a.675.675,0,0,0,.8.5.645.645,0,0,0,.521-.763.676.676,0,0,0-.8-.5.646.646,0,0,0-.521.764" transform="translate(-198.12 -131.636)" fill="#263238"/>
        <path id="Path_44777" data-name="Path 44777" d="M376.651,246.5c.1.064.5-.43,1.207-.61s1.31.038,1.364-.068c.027-.048-.094-.18-.362-.285a1.846,1.846,0,0,0-1.118-.051,1.779,1.779,0,0,0-.933.592c-.172.222-.206.4-.157.423" transform="translate(-197.765 -128.871)" fill="#263238"/>
        <path id="Path_44778" data-name="Path 44778" d="M372.157,253.878a4.789,4.789,0,0,0-1.195.09c-.185.028-.364.037-.426-.078a.945.945,0,0,1-.018-.563q.084-.717.177-1.5a24.2,24.2,0,0,0,.266-3.884,24.368,24.368,0,0,0-.578,3.853l-.152,1.507a1.074,1.074,0,0,0,.09.729.463.463,0,0,0,.363.186,1.268,1.268,0,0,0,.316-.037,4.713,4.713,0,0,0,1.158-.3" transform="translate(-194.393 -130.19)" fill="#263238"/>
        <path id="Path_44779" data-name="Path 44779" d="M376.988,260.341c-.116.023.08.786-.433,1.5s-1.347.837-1.326.946c0,.051.22.1.566.022a1.964,1.964,0,0,0,1.117-.746,1.714,1.714,0,0,0,.314-1.243c-.054-.326-.188-.493-.239-.475" transform="translate(-197.029 -136.701)" fill="#263238"/>
        <path id="Path_44780" data-name="Path 44780" d="M375.186,240.592c.119.173.8-.1,1.648-.213.848-.132,1.576-.062,1.641-.262.028-.095-.135-.245-.452-.36a2.889,2.889,0,0,0-2.505.362c-.271.2-.385.39-.331.473" transform="translate(-196.999 -125.821)" fill="#263238"/>
        <path id="Path_44781" data-name="Path 44781" d="M361.313,244.554c.165.128.607-.163,1.187-.322.575-.179,1.1-.171,1.173-.368.029-.094-.09-.234-.345-.329a1.78,1.78,0,0,0-1.9.556c-.163.217-.188.4-.114.463" transform="translate(-189.7 -127.833)" fill="#263238"/>
        <path id="Path_44782" data-name="Path 44782" d="M393.825,248.528c.069-.054,2.9-1.744,3.613,1.41s-2.6,3.216-2.628,3.126-.984-4.536-.984-4.536" transform="translate(-206.793 -130.237)" fill="#a76c4e"/>
        <path id="Path_44783" data-name="Path 44783" d="M397.046,252.739c.011-.013.064.026.166.047a.56.56,0,0,0,.412-.084,1.392,1.392,0,0,0,.354-1.361,1.854,1.854,0,0,0-.331-.752.65.65,0,0,0-.508-.329.287.287,0,0,0-.29.224c-.022.1.012.156,0,.165s-.079-.038-.084-.173a.36.36,0,0,1,.08-.226.425.425,0,0,1,.286-.149.791.791,0,0,1,.684.359,1.91,1.91,0,0,1,.388.836,1.463,1.463,0,0,1-.495,1.542.6.6,0,0,1-.521.029c-.115-.056-.148-.123-.138-.131" transform="translate(-208.335 -131.323)" fill="#76472f"/>
        <path id="Path_44784" data-name="Path 44784" d="M360.684,229.557c-.572-.171.6-2.158,1.738-3,1.713-1.271,4.5-2.428,6.357-2.31a7.786,7.786,0,0,1,5.688,2.5,12.71,12.71,0,0,1,2.765,6.044,3.861,3.861,0,0,1-.029,2.026c-.29.794-1.042,1.417-.8,2.372a1.357,1.357,0,0,1-.12,1.036c-.445.74-1.277.314-1.727-.195a13.983,13.983,0,0,1-2.175-7c.041-.56.181-1.111.191-1.672a1.943,1.943,0,0,0-.565-1.529,2,2,0,0,0-.312-.2,3.369,3.369,0,0,0-3.4.083c-1.644,1.014-4.479,2.611-5.4,2.178a4.978,4.978,0,0,1-1.725-1.129Z" transform="translate(-189.313 -117.745)" fill="#263238"/>
        <path id="Path_44785" data-name="Path 44785" d="M360.6,220.541c.217-.024,5.564-.161,7.782,3.286s2.14,4.7,2.14,4.7a2.549,2.549,0,0,1,.643.321c.273.194.266,1.459-.428,1.492-5.494-.937-11.4.322-17.86,2.173l-5,1.2c-1.356.516-1.94.269-1.439-.23.384-.383,3.945-2.977,3.945-2.977l.635-.765,1.337-3.378s-.355-.333.065-.792,3.913-4.559,8.185-5.029" transform="translate(-181.813 -115.8)" fill="#0078a5"/>
        <path id="Path_44786" data-name="Path 44786" d="M356.269,238.028s.068-.014.195-.048l.554-.153c.478-.143,1.179-.314,2.048-.514a39.74,39.74,0,0,1,6.9-.867,61.088,61.088,0,0,1,6.962.151c.89.062,1.609.126,2.106.168l.573.047c.131.01.2.01.2.01s-.068-.012-.2-.028l-.571-.063c-.5-.052-1.215-.126-2.1-.2a57.074,57.074,0,0,0-6.97-.177,38.023,38.023,0,0,0-6.911.894c-1.74.406-2.783.774-2.783.774" transform="translate(-187.073 -124.089)" fill="#263238"/>
        <g id="Group_31504" data-name="Group 31504" transform="translate(173.158 105.286)" opacity="0.3">
          <g id="Group_31503" data-name="Group 31503">
            <g id="Group_31502" data-name="Group 31502" clip-path="url(#clip-path-19)">
              <path id="Path_44787" data-name="Path 44787" d="M375.418,222.2s-5.674.5-7.818,2.29l.247-.214-2.049,1.6a1.5,1.5,0,0,1-1.186.453,11.157,11.157,0,0,1,3.037-2.767c2.085-1.348,5.622-2.6,7.77-1.36" transform="translate(-364.612 -221.696)"/>
            </g>
          </g>
        </g>
        <path id="Path_44788" data-name="Path 44788" d="M372.6,222.274a4.024,4.024,0,0,0-.569-.2,7,7,0,0,0-1.622-.255,8.342,8.342,0,0,0-2.421.257,6.994,6.994,0,0,0-2.688,1.269,12.577,12.577,0,0,0-1.14,1.046c-.347.359-.7.686-1,1.033a7.6,7.6,0,0,1-.888.938,2.431,2.431,0,0,1-1,.479c-1.335.358-2.227.289-2.188.189a.218.218,0,0,0,.133.078,1.748,1.748,0,0,0,.446.034,7.494,7.494,0,0,0,1.625-.242,2.484,2.484,0,0,0,1.029-.482,7.507,7.507,0,0,0,.9-.942c.3-.34.656-.669,1-1.026a12.829,12.829,0,0,1,1.133-1.038,6.99,6.99,0,0,1,2.655-1.26,8.448,8.448,0,0,1,2.4-.273,7.417,7.417,0,0,1,1.616.226c.187.048.331.09.428.123s.15.041.15.041" transform="translate(-188.55 -116.473)" fill="#263238"/>
        <g id="Group_31507" data-name="Group 31507" transform="translate(178.938 109.39)" opacity="0.3">
          <g id="Group_31506" data-name="Group 31506">
            <g id="Group_31505" data-name="Group 31505" clip-path="url(#clip-path-20)">
              <path id="Path_44789" data-name="Path 44789" d="M385.282,230.428a12.634,12.634,0,0,1-2.808.208c-1.091.036-2.16.116-3.252.1a4.678,4.678,0,0,1-2.44-.4,1.168,1.168,0,0,0,.613.97,5.629,5.629,0,0,0,1.843.313,29.586,29.586,0,0,0,6.484-.372,7.018,7.018,0,0,0-.44-.82" transform="translate(-376.782 -230.337)"/>
            </g>
          </g>
        </g>
        <path id="Path_44790" data-name="Path 44790" d="M384.147,226.686c.687.112,1.113.2,1.264.719.126.435.173.994-.24,1.181a1.124,1.124,0,0,1-.406.071l-7.089.35a1.035,1.035,0,0,1-.692-.129.7.7,0,0,1,0-.987,1.934,1.934,0,0,1,.975-.491,23.16,23.16,0,0,1,6.19-.714" transform="translate(-197.844 -119.03)" fill="#0078a5"/>
        <path id="Path_44791" data-name="Path 44791" d="M377.028,228.747a.669.669,0,0,1-.256-.248.872.872,0,0,1,.061-.921,2.164,2.164,0,0,1,1.281-.644c.548-.11,1.153-.223,1.79-.32a18.462,18.462,0,0,1,3.289-.239c.423.009.763.039,1,.059l.271.028a.416.416,0,0,0,.1,0,.371.371,0,0,0-.093-.021l-.269-.044c-.235-.031-.577-.07-1-.087a16.926,16.926,0,0,0-3.3.215c-.64.1-1.245.213-1.794.328a2.192,2.192,0,0,0-1.314.686.9.9,0,0,0-.04.975.587.587,0,0,0,.2.195.33.33,0,0,0,.089.036" transform="translate(-197.759 -118.828)" fill="#263238"/>
        <path id="Path_44792" data-name="Path 44792" d="M357.678,233.75l4.221-1.164-.056,1.287-4.638,1.072Z" transform="translate(-187.565 -122.128)" fill="#fff"/>
        <path id="Path_44793" data-name="Path 44793" d="M364.055,239.538c0-.024-1.963.186-4.378.468s-4.371.53-4.368.554,1.962-.186,4.378-.468,4.371-.53,4.368-.554" transform="translate(-186.569 -125.778)" fill="#263238"/>
        <path id="Path_44794" data-name="Path 44794" d="M338.11,290.957l4.287,10.371,1.884-7.97a9.456,9.456,0,0,1,2.239-4.116,10.321,10.321,0,0,1,1.231-1.1l3.36,15.38s-2.838,8.755-9.616,8.957c-1.97.059-4.962-1.188-5.9-3.38-.464-1.082-6.492-15.369-6.492-15.369Z" transform="translate(-172.808 -151.3)" fill="#263238"/>
        <path id="Path_44795" data-name="Path 44795" d="M342.446,305.107l.245-1.532-5.04-4.278-.894,1.006-2.874,3.291,10.856,8.8,2.619-3.145Z" transform="translate(-175.318 -157.158)" fill="#263238"/>
        <path id="Path_44796" data-name="Path 44796" d="M401.264,311.443c.142-2.14-2.449-26.59-2.449-26.59l-5.561-8.216-10.606-1.869a6.951,6.951,0,0,1-5.365,5.911c-2.251.641-4.7-1.606-4.7-1.606l-4.212,2.046,1.6,11.453,2.066,13.073,29.333,8.338s-.252-.4-.11-2.54" transform="translate(-193.429 -144.278)" fill="#263238"/>
        <path id="Path_44797" data-name="Path 44797" d="M377.409,321.761,376.1,306l15.34-3.109,13.784,20.406.405,6.971-21.2-.664Z" transform="translate(-197.484 -159.043)" fill="#0078a5"/>
        <path id="Path_44798" data-name="Path 44798" d="M370.524,299.492a4.486,4.486,0,0,1,.175.74c.1.479.222,1.176.363,2.04.283,1.727.6,4.124.907,6.773s.6,5.046.834,6.777c.115.833.212,1.523.285,2.05a4.52,4.52,0,0,1,.08.756,4.439,4.439,0,0,1-.175-.74c-.1-.479-.222-1.176-.363-2.04-.283-1.726-.6-4.124-.907-6.774s-.6-5.045-.834-6.776c-.116-.832-.212-1.522-.285-2.049a4.541,4.541,0,0,1-.08-.757" transform="translate(-194.556 -157.26)" fill="#263238"/>
        <path id="Path_44799" data-name="Path 44799" d="M346.759,311.475a12.8,12.8,0,0,1,2.782.634c.724.374,2.821,1.77,2.821,1.77l4.241.8-1.013,7-2.837-1.407-6.251.621s-1.361-.311-1.361-1.285a2.573,2.573,0,0,1-1.211-1.834,28.213,28.213,0,0,1-1.824-2.619c-.15-.424.7-1.427.7-1.427a9.862,9.862,0,0,0,2.869,1.749c1.086.237,2.065-.19,2.158-.887a5.336,5.336,0,0,0-1.074-3.118" transform="translate(-179.626 -163.552)" fill="#a76c4e"/>
        <g id="Group_31510" data-name="Group 31510" transform="translate(178.304 146.102)" opacity="0.3">
          <g id="Group_31509" data-name="Group 31509">
            <g id="Group_31508" data-name="Group 31508" clip-path="url(#clip-path-21)">
              <path id="Path_44800" data-name="Path 44800" d="M375.523,321.535s14.23,5.1,19,4.8c4.044-.256,6.034-2.152,6.355-4.8s.766-13.895.766-13.895l-7.635,13.238-18.566-.583Z" transform="translate(-375.448 -307.64)"/>
            </g>
          </g>
        </g>
        <path id="Path_44801" data-name="Path 44801" d="M393.057,305.3a86.712,86.712,0,0,0,2.149-8.55l1.774-9.369a10.2,10.2,0,0,0-2.307-6.718,6.419,6.419,0,0,0-4.968-2.579c-4.606.02-4.442,8.509-4.442,8.509l-1.254,12.152-18.019-2.937-1.143,8.663,21.191,4.572a6.3,6.3,0,0,0,5.2-1,5.508,5.508,0,0,0,1.822-2.742" transform="translate(-191.577 -146.021)" fill="#263238"/>
        <path id="Path_44802" data-name="Path 44802" d="M413.185,279.633c0,.04-.367.057-.929.21a4.962,4.962,0,0,0-3.306,2.857c-.233.534-.3.9-.342.889a2.128,2.128,0,0,1,.18-.953,4.584,4.584,0,0,1,3.429-2.963,2.135,2.135,0,0,1,.969-.04" transform="translate(-214.55 -146.815)" fill="#263238"/>
        <path id="Path_44803" data-name="Path 44803" d="M396.829,296.793s-.006.077-.03.226l-.112.658-.454,2.525-.735,3.993c-.279,1.557-.622,3.329-1.073,5.27-.223.972-.467,1.987-.75,3.038-.14.526-.3,1.06-.463,1.6a11.272,11.272,0,0,1-.618,1.626,5.168,5.168,0,0,1-1.052,1.477,5.6,5.6,0,0,1-1.573,1.014,6.556,6.556,0,0,1-3.835.4l-16.755-3.6L364.67,314l-.111-.024.015-.113c.4-2.991.78-5.889,1.148-8.663l.016-.121.12.02,18.013,2.969-.1.076c.405-3.767.731-6.8.957-8.906l.271-2.4c.032-.266.057-.473.076-.623s.034-.211.034-.211,0,.073-.009.214-.03.359-.053.625c-.053.561-.129,1.37-.226,2.409-.208,2.106-.508,5.142-.881,8.913l-.009.09-.09-.015-18.024-2.905.136-.1c-.364,2.774-.745,5.673-1.138,8.664l-.1-.136,4.708,1.015,16.745,3.621a6.346,6.346,0,0,0,3.706-.377,5.389,5.389,0,0,0,1.514-.968,4.963,4.963,0,0,0,1.014-1.414,11.091,11.091,0,0,0,.613-1.595c.169-.538.326-1.068.467-1.592.287-1.047.536-2.059.765-3.028.461-1.937.815-3.7,1.107-5.257l.776-3.984c.216-1.084.383-1.93.5-2.516.058-.279.1-.5.136-.653s.055-.221.055-.221" transform="translate(-191.426 -155.429)" fill="#263238"/>
        <path id="Path_44804" data-name="Path 44804" d="M406.98,324.612a8.1,8.1,0,0,1-1.2-1.591c-.305-.452-.563-.9-.751-1.18a.917.917,0,0,0-.421-.332c0-.014.056-.044.169-.025a.74.74,0,0,1,.387.246c.247.29.512.7.823,1.155a8.143,8.143,0,0,1,1,1.728" transform="translate(-212.453 -168.805)" fill="#263238"/>
        <path id="Path_44805" data-name="Path 44805" d="M401.584,289.8s-3.208-8.126.136-12.1a3.792,3.792,0,0,1,3.192-1.313,8.712,8.712,0,0,1,3.355.8s-2.846-.509-4.035.75c-.874.927-2.976,3.947-.758,11.152Z" transform="translate(-210.14 -145.123)" fill="#0078a5"/>
        <path id="Path_44806" data-name="Path 44806" d="M372.6,297.339l-3.269-10.714a1.848,1.848,0,0,1,1.966-.923l3.157,11.637Z" transform="translate(-193.932 -150.005)" fill="#0078a5"/>
        <path id="Path_44807" data-name="Path 44807" d="M345.2,311.4a49.471,49.471,0,0,1-3.958-2.979c-2.145-1.7-3.848-3.121-3.805-3.174s1.815,1.281,3.959,2.981,3.847,3.119,3.8,3.173" transform="translate(-177.183 -160.283)" fill="#455a64"/>
        <path id="Path_44808" data-name="Path 44808" d="M334.767,304.474l-.974-.9.468-.572,1.127.759Z" transform="translate(-175.271 -159.104)" fill="#455a64"/>
        <path id="Path_44809" data-name="Path 44809" d="M316.51,273.483a1.687,1.687,0,0,1,1.158-2.04c1.763-.519,4.491-1.169,5.235-.49,1.124,1.027,3.813,3.52,3.813,3.52l3.712,7.711-6.015,1.77-1.706-5.863s-2.738.147-2.493-1.32c0,0-1.369-.538-1.173-1.369s1.32-1.027,1.32-1.027l-.245-1.467-3.592.629Z" transform="translate(-166.168 -142.121)" fill="#a76c4e"/>
        <path id="Path_44810" data-name="Path 44810" d="M319.446,276.938h-3.027v-3.571h3.027a1.786,1.786,0,1,1,0,3.571" transform="translate(-166.148 -143.542)" fill="#455a64"/>
        <path id="Path_44811" data-name="Path 44811" d="M321.773,275.654l-4.547-1.173s-1.222-.342-.586.978,2.542,1.027,3.275,1.809,1.149,2.1,4.18,2.591" transform="translate(-166.168 -144.106)" fill="#a76c4e"/>
        <path id="Path_44812" data-name="Path 44812" d="M323.964,279.73a2.6,2.6,0,0,1-.6-.067,6.407,6.407,0,0,1-1.574-.5,4.314,4.314,0,0,1-.957-.643,6.942,6.942,0,0,1-.867-.987c-.476-.819-1.594-.777-2.581-1.228a2.337,2.337,0,0,1-.676-.47,2.177,2.177,0,0,1-.411-.69,1.6,1.6,0,0,1-.09-.4.519.519,0,0,1,.162-.424.9.9,0,0,1,.782-.076l2.345.633,1.576.447a2.823,2.823,0,0,1,.569.2,2.792,2.792,0,0,1-.594-.1l-1.6-.371-2.36-.582a.713.713,0,0,0-.569.036c-.117.093-.082.341,0,.555a1.944,1.944,0,0,0,.362.605,2.12,2.12,0,0,0,.6.415,12.574,12.574,0,0,0,1.449.468,2.6,2.6,0,0,1,.7.316,2.345,2.345,0,0,1,.511.528,7.078,7.078,0,0,0,.826.976,4.291,4.291,0,0,0,.9.638,12.36,12.36,0,0,0,2.095.724" transform="translate(-166.037 -143.977)" fill="#76472f"/>
        <path id="Path_44813" data-name="Path 44813" d="M327.375,305.382a3.169,3.169,0,0,1-2.641-1.572,4.709,4.709,0,0,1-.189-4.164c.038-.089.079-.175.121-.258-.017-.037-.032-.074-.047-.11a7.963,7.963,0,0,1-.426-2.493c-.173-2.782-.331-5.369-.488-7.955s-.316-5.183-.49-7.97l.237-.015c.173,2.788.331,5.38.489,7.971s.315,5.173.489,7.955a8.014,8.014,0,0,0,.383,2.356,2.35,2.35,0,0,1,1.373-1.12,1.492,1.492,0,0,1,1.192.247,1.379,1.379,0,0,1,.6.994,1.438,1.438,0,0,1-.434,1.156,1.458,1.458,0,0,1-1.152.45,2.166,2.166,0,0,1-1.588-1.2l-.038.085a4.466,4.466,0,0,0,.174,3.948,2.771,2.771,0,0,0,3.179,1.332,3.737,3.737,0,0,0,2.1-3.252,8.061,8.061,0,0,0-.931-4.136c-.3-.637-.652-1.259-.99-1.862-.346-.617-.7-1.256-1.014-1.913a3.657,3.657,0,0,1-.432-1.534,1.44,1.44,0,0,1,.772-1.361.871.871,0,0,1,1.131.876l-.237-.022a.635.635,0,0,0-.81-.632,1.216,1.216,0,0,0-.619,1.139,3.448,3.448,0,0,0,.409,1.433c.306.649.662,1.284,1.007,1.9s.691,1.232,1,1.876a8.287,8.287,0,0,1,.954,4.259,3.962,3.962,0,0,1-2.255,3.455,2.423,2.423,0,0,1-.821.14m-2.443-5.987a2.018,2.018,0,0,0,1.48,1.221,1.219,1.219,0,0,0,.961-.381,1.2,1.2,0,0,0,.366-.965,1.144,1.144,0,0,0-.5-.824,1.247,1.247,0,0,0-1-.21,2.2,2.2,0,0,0-1.312,1.159" transform="translate(-169.717 -147.468)" fill="#455a64"/>
        <path id="Path_44814" data-name="Path 44814" d="M386.553,406.9l10.981-3.756s7.505,9.9,9.6,9.4L400.618,391l-17.349,5.15Z" transform="translate(-201.25 -205.309)" fill="#455a64"/>
        <path id="Path_44815" data-name="Path 44815" d="M407.088,402.131a.92.92,0,0,1,.82-.912.883.883,0,0,1,.911.805.969.969,0,0,1-.874.961c-.451-.02-.944-.5-.855-.943" transform="translate(-213.753 -210.675)" fill="#e0e0e0"/>
        <path id="Path_44816" data-name="Path 44816" d="M418.887,390.677l-1.682.5,6.4,20.688s.708.833,1.351.521Z" transform="translate(-219.07 -205.14)" fill="#e0e0e0"/>
        <path id="Path_44817" data-name="Path 44817" d="M413,414.815c.1-.035-.007-.576.175-1.2.165-.625.54-1.03.47-1.114-.05-.091-.632.256-.839,1.011s.1,1.351.194,1.3" transform="translate(-216.723 -216.595)" fill="#263238"/>
        <path id="Path_44818" data-name="Path 44818" d="M416.585,419.467c.109-.007.151-.517.487-1.009s.776-.737.74-.841c-.013-.1-.652.009-1.059.629s-.27,1.249-.169,1.221" transform="translate(-218.687 -219.268)" fill="#263238"/>
        <path id="Path_44819" data-name="Path 44819" d="M421.469,422.473c-.007-.1-.577-.09-1.071.355s-.575,1.006-.474,1.024c.1.033.317-.379.729-.738s.838-.532.816-.64" transform="translate(-220.477 -221.808)" fill="#263238"/>
        <path id="Path_44820" data-name="Path 44820" d="M406.966,416.086c.083-.073-.209-.512-.348-1.119s-.092-1.127-.2-1.155-.348.532-.173,1.245.653,1.107.72,1.03" transform="translate(-213.284 -217.287)" fill="#263238"/>
        <path id="Path_44821" data-name="Path 44821" d="M365.744,361.3c-.423-.117-19.019,19.832-19.442,23.129s.254,6.171,2.452,8.03,27.219-4.227,27.219-4.227l-2.367-10.482,9.045-3.043-8.083-14.793Z" transform="translate(-181.777 -188.99)" fill="#0078a5"/>
        <g id="Group_31513" data-name="Group 31513" transform="translate(178.973 175.765)" opacity="0.3">
          <g id="Group_31512" data-name="Group 31512">
            <g id="Group_31511" data-name="Group 31511" clip-path="url(#clip-path-22)">
              <path id="Path_44822" data-name="Path 44822" d="M377.451,371.072l-.6.64s10.659,11.182,13.929,11.028l5.234-1.773L378.311,370.1Z" transform="translate(-376.855 -370.102)"/>
            </g>
          </g>
        </g>
        <path id="Path_44823" data-name="Path 44823" d="M384.817,398.048c.019.066-3.861,1.263-8.664,2.675s-8.716,2.5-8.735,2.438,3.86-1.263,8.665-2.675,8.715-2.5,8.734-2.438" transform="translate(-192.927 -209.009)" fill="#263238"/>
        <path id="Path_44824" data-name="Path 44824" d="M348.1,397.016l3.615,11.467s-10.441,7.525-9.98,9.709l22.486-6.21-4.9-18.1Z" transform="translate(-179.432 -206.824)" fill="#455a64"/>
        <path id="Path_44825" data-name="Path 44825" d="M375.833,418.519a.952.952,0,0,1,.924.872.915.915,0,0,1-.857.924,1,1,0,0,1-.974-.929.951.951,0,0,1,1-.862" transform="translate(-196.869 -219.755)" fill="#e0e0e0"/>
        <path id="Path_44826" data-name="Path 44826" d="M364.309,431.04l-.473-1.754L342.25,435.4s-.88.712-.573,1.386Z" transform="translate(-179.377 -225.413)" fill="#e0e0e0"/>
        <path id="Path_44827" data-name="Path 44827" d="M361.926,424.31c.034.109.6.007,1.234.211.643.187,1.053.586,1.142.514.1-.049-.25-.661-1.026-.894s-1.4.075-1.35.169" transform="translate(-190.042 -222.666)" fill="#263238"/>
        <path id="Path_44828" data-name="Path 44828" d="M357.53,427.9c0,.113.531.169,1.032.53s.745.823.852.788c.108-.011.007-.675-.625-1.113s-1.286-.311-1.259-.205" transform="translate(-187.735 -224.634)" fill="#263238"/>
        <path id="Path_44829" data-name="Path 44829" d="M354.812,432.893c.106,0,.107-.6-.341-1.118s-1.028-.621-1.049-.517c-.037.107.386.338.747.774s.53.881.643.861" transform="translate(-185.577 -226.429)" fill="#263238"/>
        <path id="Path_44830" data-name="Path 44830" d="M360.795,418.047c.074.087.536-.2,1.168-.332s1.17-.067,1.2-.177-.542-.373-1.285-.21-1.162.649-1.084.72" transform="translate(-189.445 -219.108)" fill="#263238"/>
        <g id="Group_31516" data-name="Group 31516" transform="translate(177.104 178.294)" opacity="0.3">
          <g id="Group_31515" data-name="Group 31515">
            <g id="Group_31514" data-name="Group 31514" clip-path="url(#clip-path-23)">
              <path id="Path_44831" data-name="Path 44831" d="M380.763,398.466l-1.384-5.438,1.031-.48-6.289-17.122-1.2,1.045,4.943,15.685,1.768,6.547Z" transform="translate(-372.92 -375.426)"/>
            </g>
          </g>
        </g>
        <path id="Path_44832" data-name="Path 44832" d="M347.336,334.475a8.828,8.828,0,0,0-7.078,1.517,6.493,6.493,0,0,0-2.641,6.494c1.014,7.1,10.088,31.338,10.088,31.338l12.555-3.775c.072-.021.142-.228.1-.165-.1.165-6.371-20.027-6.212-19.789.169.254,12.671,10.34,17.867,12.2a11.52,11.52,0,0,0,13.161-3.929c1.217-1.7,1.3-9.177,0-13.128,0,0-36.235-10.272-36.911-10.526a7.5,7.5,0,0,0-.932-.235" transform="translate(-177.233 -175.53)" fill="#0078a5"/>
        <path id="Path_44833" data-name="Path 44833" d="M357.1,350.244a17.023,17.023,0,0,1,7.361,11.96" transform="translate(-187.508 -183.909)" fill="#0078a5"/>
        <path id="Path_44834" data-name="Path 44834" d="M385.549,358s-.048.083-.152.239a6.815,6.815,0,0,1-.507.663,11.348,11.348,0,0,1-2.474,2.072,12.588,12.588,0,0,1-4.805,1.831,11.138,11.138,0,0,1-3.251.044,10.7,10.7,0,0,1-3.508-1.053c-.6-.255-1.163-.6-1.767-.9-.581-.346-1.188-.681-1.787-1.058-1.2-.748-2.44-1.553-3.7-2.433-2.522-1.747-5.165-3.721-7.9-5.9l-1.028-.831-.513-.429-.135-.124-.067-.065c.043.015-.12-.056.092.029.163-.173.046-.085.083-.1l.009.036.091.32.806,2.608,1.709,5.4,3.67,11.506.037.116-.116.035-12.717,3.828-.111.033-.04-.108c-.809-2.174-1.653-4.49-2.493-6.837-1.822-5.1-3.554-10.1-5.081-14.976-.766-2.437-1.478-4.846-2.048-7.241-.068-.3-.148-.6-.207-.9s-.111-.6-.166-.9a8.465,8.465,0,0,1-.176-1.821,6.361,6.361,0,0,1,1.009-3.432,8.284,8.284,0,0,1,5.774-3.492,9.121,9.121,0,0,1,3.3.141l.794.2.766.228,1.512.451,11.12,3.32,16.1,4.825,4.374,1.324,1.135.35c.255.08.385.127.385.127s-.133-.031-.391-.1l-1.143-.327-4.388-1.28-16.127-4.751-11.135-3.294-1.514-.448-.767-.226-.768-.192a8.918,8.918,0,0,0-3.225-.132,8.07,8.07,0,0,0-5.613,3.4,6.136,6.136,0,0,0-.968,3.312,8.253,8.253,0,0,0,.175,1.779q.083.446.165.894c.058.3.138.594.207.892.569,2.384,1.283,4.788,2.049,7.222,1.529,4.87,3.261,9.866,5.082,14.965.84,2.346,1.683,4.662,2.491,6.834l-.151-.075,12.719-3.82-.079.151-3.656-11.51L354.83,353l-.8-2.612-.093-.328-.011-.046c.036-.031-.089.037.081-.142.222.093.069.033.123.056l.056.049.112.1.509.428,1.024.831c2.729,2.181,5.364,4.16,7.877,5.911,1.251.882,2.484,1.69,3.68,2.44.6.379,1.2.714,1.777,1.061.6.307,1.164.65,1.752.9a10.584,10.584,0,0,0,3.462,1.057,11.041,11.041,0,0,0,3.216-.027,12.58,12.58,0,0,0,4.78-1.783,11.646,11.646,0,0,0,2.486-2.031,8.06,8.06,0,0,0,.521-.648c.109-.152.169-.227.169-.227" transform="translate(-177.11 -175.412)" fill="#263238"/>
        <path id="Path_44835" data-name="Path 44835" d="M360.448,355.869a4.433,4.433,0,0,1,1.044.566,15.374,15.374,0,0,1,2.251,1.775,13.613,13.613,0,0,1,1.863,2.181,4.1,4.1,0,0,1,.579,1.037,9.044,9.044,0,0,1-.721-.935,18.372,18.372,0,0,0-1.892-2.1,21.914,21.914,0,0,0-2.179-1.81,7.77,7.77,0,0,1-.945-.71" transform="translate(-189.267 -186.862)" fill="#263238"/>
        <path id="Path_44836" data-name="Path 44836" d="M369.467,352.926a3.73,3.73,0,0,1,.457.944,16.579,16.579,0,0,1,1.095,4.923,3.712,3.712,0,0,1-.014,1.049c-.076,0-.156-1.59-.587-3.5s-1.022-3.389-.951-3.417" transform="translate(-194 -185.317)" fill="#263238"/>
        <path id="Path_44837" data-name="Path 44837" d="M427.944,350.422l4.59-1.323,2.992.544,1.424,5c1.4,4.428,1.1,6.966-1.828,8.907a2.66,2.66,0,0,1-2.271.631c-2.08-.873-4.906-13.762-4.906-13.762" transform="translate(-224.709 -183.308)" fill="#455a64"/>
        <path id="Path_44838" data-name="Path 44838" d="M405.236,343.775l-29.28-4.815.066.392,29.213,8.736Z" transform="translate(-197.411 -177.984)" fill="#455a64"/>
      </g>
    </g>
    <g id="Group_31544" data-name="Group 31544" transform="translate(14.103)">
      <g id="Group_31543" data-name="Group 31543" clip-path="url(#clip-path)">
        <path id="Path_44839" data-name="Path 44839" d="M37.79,394.3l-2.879,10.106s9.171,6.36,8.819,8.28l-19.541-4.953L28.038,391.8Z" transform="translate(-12.701 -205.732)" fill="#455a64"/>
        <path id="Path_44840" data-name="Path 44840" d="M33.627,413.308a.828.828,0,0,0-.78.783.8.8,0,0,0,.759.79.873.873,0,0,0,.821-.833c-.038-.407-.488-.833-.88-.733" transform="translate(-17.247 -217.019)" fill="#e0e0e0"/>
        <g id="Group_31521" data-name="Group 31521" transform="translate(11.488 200.414)" opacity="0.6">
          <g id="Group_31520" data-name="Group 31520">
            <g id="Group_31519" data-name="Group 31519" clip-path="url(#clip-path-25)">
              <path id="Path_44841" data-name="Path 44841" d="M24.19,423.594l.45-1.59,18.567,5.343s.775.6.523,1.2Z" transform="translate(-24.19 -422.004)" fill="#fff"/>
            </g>
          </g>
        </g>
        <path id="Path_44842" data-name="Path 44842" d="M45.218,418.074c-.027.1-.515.019-1.061.211s-.9.535-.975.474c-.084-.041.2-.583.867-.8s1.212.035,1.169.118" transform="translate(-22.667 -219.417)" fill="#263238"/>
        <path id="Path_44843" data-name="Path 44843" d="M49.547,421.114c0,.1-.455.159-.88.486s-.625.735-.719.707c-.094-.008-.02-.591.516-.987s1.1-.3,1.083-.206" transform="translate(-25.159 -221.078)" fill="#263238"/>
        <path id="Path_44844" data-name="Path 44844" d="M52.453,425.414c-.092,0-.105-.518.27-.985s.874-.565.895-.474-.326.3-.628.692-.44.782-.537.767" transform="translate(-27.514 -222.598)" fill="#263238"/>
        <path id="Path_44845" data-name="Path 44845" d="M46.06,412.591c-.062.078-.466-.166-1.015-.266s-1.012-.034-1.041-.13.46-.338,1.1-.211,1.017.542.951.606" transform="translate(-23.105 -216.31)" fill="#263238"/>
        <path id="Path_44846" data-name="Path 44846" d="M27.235,401.96l-.454,10.509s10.39,4,10.493,5.947l-20.142-.159.043-16.4Z" transform="translate(-8.996 -211.009)" fill="#455a64"/>
        <path id="Path_44847" data-name="Path 44847" d="M23.695,422.2a.834.834,0,0,0-.576.947.791.791,0,0,0,.921.587.88.88,0,0,0,.605-1.006.818.818,0,0,0-1.025-.5" transform="translate(-12.131 -221.678)" fill="#e0e0e0"/>
        <g id="Group_31524" data-name="Group 31524" transform="translate(8.137 205.595)" opacity="0.6">
          <g id="Group_31523" data-name="Group 31523">
            <g id="Group_31522" data-name="Group 31522" clip-path="url(#clip-path-26)">
              <path id="Path_44848" data-name="Path 44848" d="M17.133,434.565l.068-1.653,19.286.771s.893.4.787,1.042Z" transform="translate(-17.133 -432.912)" fill="#fff"/>
            </g>
          </g>
        </g>
        <path id="Path_44849" data-name="Path 44849" d="M36.1,423.888c0,.1-.5.141-.983.457s-.748.734-.838.693c-.09-.02.061-.615.657-.987s1.185-.255,1.164-.163" transform="translate(-17.987 -222.53)" fill="#263238"/>
        <path id="Path_44850" data-name="Path 44850" d="M41.085,425.846c.022.1-.406.263-.743.682s-.437.864-.535.859c-.093.015-.156-.569.273-1.082s1-.553,1-.458" transform="translate(-20.867 -223.586)" fill="#263238"/>
        <path id="Path_44851" data-name="Path 44851" d="M44.931,429.412c-.089.02-.223-.479.034-1.022s.719-.757.759-.674-.246.373-.45.823-.246.865-.343.874" transform="translate(-23.532 -224.58)" fill="#263238"/>
        <path id="Path_44852" data-name="Path 44852" d="M35.488,418.521c-.042.091-.492-.05-1.049-.017s-.991.208-1.042.122.369-.438,1.025-.469,1.114.285,1.065.363" transform="translate(-17.534 -219.569)" fill="#263238"/>
        <path id="Path_44853" data-name="Path 44853" d="M11.894,240.153v8.309l2.2,32.372s-1.371,15.7-2.213,24.569c-.731,7.7.464,21.105.464,21.105h12.82L29.756,281.8,32.6,253.911l4.953-12.691Z" transform="translate(-6.116 -126.102)" fill="#263238"/>
        <path id="Path_44854" data-name="Path 44854" d="M54.8,240.153l1.239,33.741c-.086,6.331-1.831,18.152-4.095,24.053l-10.3,22.632-.6,2.036-7.66-1.876,5.7-80.02Z" transform="translate(-17.534 -126.102)" fill="#263238"/>
        <path id="Path_44855" data-name="Path 44855" d="M49.462,258.972a1.245,1.245,0,0,1,.013.2c0,.145.008.341.014.593,0,.534.01,1.3.019,2.279.006,1.979,0,4.843-.064,8.381s-.169,7.751-.421,12.424a104,104,0,0,1-1.685,15.126c-1.012,5.306-2.088,10.337-3.044,14.916S42.5,321.6,41.869,325.079s-1.079,6.307-1.34,8.268c-.147.978-.224,1.742-.3,2.258-.034.249-.06.444-.08.587a1.165,1.165,0,0,1-.036.2,1.216,1.216,0,0,1,.011-.2c.013-.144.032-.34.056-.59.057-.518.119-1.284.251-2.265.232-1.966.653-4.8,1.264-8.286s1.427-7.621,2.375-12.2,2.013-9.614,3.024-14.916a105.643,105.643,0,0,0,1.7-15.093c.265-4.668.388-8.879.474-12.415s.118-6.4.142-8.377c.012-.979.021-1.744.028-2.278,0-.251.008-.448.011-.593a1.243,1.243,0,0,1,.012-.2" transform="translate(-21.064 -135.983)" fill="#455a64"/>
        <path id="Path_44856" data-name="Path 44856" d="M83.524,220.216a5.753,5.753,0,0,1,.189,1.941c-.095.994-.142,3.442-2.793,4.277s-5.15-1.153-5.96-2.052-.715-3.834-.715-3.834l4.355-1.941Z" transform="translate(-38.984 -114.788)" fill="#0078a5"/>
        <path id="Path_44857" data-name="Path 44857" d="M18.083,142.94l-2.206,3.544-8.933,3.8,2.235,36.669,1.607,6.644,29.744-.989.735-5.148V162.735c-.672-6.347-3.737-10.287-6.58-11.848l-1.86-1.271-.7-2.33L29.5,144.833l-8.4-2.182Z" transform="translate(-3.646 -74.904)" fill="#0078a5"/>
        <g id="Group_31527" data-name="Group 31527" transform="translate(4.545 102.926)" opacity="0.3">
          <g id="Group_31526" data-name="Group 31526">
            <g id="Group_31525" data-name="Group 31525" clip-path="url(#clip-path-27)">
              <path id="Path_44858" data-name="Path 44858" d="M9.571,223.061a9.123,9.123,0,0,0,8.988,4c2.987-.5,5.507-2.474,8.371-3.46,4.983-1.715,10.666-.351,15.579-2.262.1-.847.039-1.885.1-2.462-2.459-.126-5.075-.264-7.247-1.424l-1.97-.725Z" transform="translate(-9.571 -216.726)"/>
            </g>
          </g>
        </g>
        <path id="Path_44859" data-name="Path 44859" d="M3.368,158.729S-.872,162.36.356,171.818c1.14,8.787,3.164,21.029,5.862,22.45s8.521.71,12.781-1.7,16.616-8.947,16.616-8.947L30.5,174.526l-16.474,6.391S11.9,166.34,10.62,163.83" transform="translate(-0.07 -83.347)" fill="#0078a5"/>
        <path id="Path_44860" data-name="Path 44860" d="M10.551,163.83s.047.092.128.278c.039.094.093.208.147.349l.161.5c.242.755.531,1.889.845,3.362.635,2.945,1.4,7.242,2.214,12.588l-.119-.07,16.465-6.415.092-.036.049.086,5.119,9.086.06.107-.109.059-10.563,5.691L19.858,192.2c-.851.454-1.7.933-2.578,1.312a21.8,21.8,0,0,1-2.693.933,17.643,17.643,0,0,1-5.494.636,8.047,8.047,0,0,1-2.643-.554l-.309-.138a2.969,2.969,0,0,1-.3-.185,3.077,3.077,0,0,1-.479-.484,6.573,6.573,0,0,1-.7-1.121,25.341,25.341,0,0,1-1.652-4.768c-.414-1.581-.742-3.133-1.038-4.637-.583-3.009-1.016-5.83-1.377-8.41a39.586,39.586,0,0,1-.583-7,17.421,17.421,0,0,1,.935-5.219A11.506,11.506,0,0,1,2.514,159.6a6.492,6.492,0,0,1,.564-.667,2.181,2.181,0,0,1,.22-.2s-.07.073-.2.217a7.53,7.53,0,0,0-.543.679,11.855,11.855,0,0,0-1.511,2.969,17.513,17.513,0,0,0-.887,5.191,39.911,39.911,0,0,0,.618,6.976c.372,2.575.815,5.393,1.406,8.395.3,1.5.631,3.047,1.047,4.621a25.191,25.191,0,0,0,1.645,4.72,6.355,6.355,0,0,0,.673,1.08,2.894,2.894,0,0,0,.441.445,2.815,2.815,0,0,0,.262.162l.294.131a7.845,7.845,0,0,0,2.565.532,17.425,17.425,0,0,0,5.417-.634,21.573,21.573,0,0,0,2.659-.923c.871-.376,1.7-.843,2.554-1.3L24.92,189.2l10.57-5.688-.049.166-5.106-9.092.14.05L13.991,181l-.1.04-.016-.109c-.789-5.346-1.529-9.646-2.135-12.594-.3-1.475-.572-2.61-.8-3.367q-.084-.282-.149-.5l-.135-.351c-.073-.189-.1-.288-.1-.288" transform="translate(0 -83.347)" fill="#263238"/>
        <path id="Path_44861" data-name="Path 44861" d="M25.206,180.037l10.7-.7,2.367,4.449L26.279,185.94Z" transform="translate(-13.236 -94.166)" fill="#0078a5"/>
        <path id="Path_44862" data-name="Path 44862" d="M25.2,179.9c.008.006.04.153.1.427l.239,1.185c.2,1.04.484,2.495.829,4.274l-.109-.076,10.795-1.971,1.193-.214-.087.179L35.8,179.255l.109.061-7.666.446-2.224.115-.6.026a1.629,1.629,0,0,1-.218,0,.919.919,0,0,1,.188-.025l.574-.051,2.191-.175,7.739-.567.074-.005.035.066,2.375,4.446.08.15-.167.03-1.193.215L26.293,185.9l-.094.017-.016-.093-.738-4.353q-.118-.732-.189-1.171a3,3,0,0,1-.052-.4" transform="translate(-13.234 -94.033)" fill="#263238"/>
        <path id="Path_44863" data-name="Path 44863" d="M26.164,205.448c.066.051-.892,1.177-1.691,2.786s-1.14,3.048-1.221,3.024a3.208,3.208,0,0,1,.177-.95,11.957,11.957,0,0,1,.823-2.184,11.317,11.317,0,0,1,1.251-1.971,3.165,3.165,0,0,1,.662-.705" transform="translate(-12.205 -107.878)" fill="#263238"/>
        <path id="Path_44864" data-name="Path 44864" d="M38.249,156.57a3.906,3.906,0,0,1-.594-.426L36.1,154.911l.136-.021a14.449,14.449,0,0,1-2.124,2.665l-.076.076-.085-.07L32.315,156.2c-1.76-1.437-3.4-2.679-4.6-3.564l-1.42-1.047a3.3,3.3,0,0,1-.507-.405,3.236,3.236,0,0,1,.561.326c.351.226.855.558,1.467.984,1.225.851,2.887,2.073,4.651,3.514.577.47,1.128.934,1.637,1.372l-.161.006a15.466,15.466,0,0,0,2.137-2.593l.058-.088.078.067,1.5,1.3a3.936,3.936,0,0,1,.53.5" transform="translate(-13.543 -79.384)" fill="#263238"/>
        <path id="Path_44865" data-name="Path 44865" d="M56.842,157.118a1.772,1.772,0,0,1,.087.6,8.934,8.934,0,0,1-.054,1.585l-.034.281-.162-.236a18.888,18.888,0,0,0-1.271-1.646c-.191-.221-.384-.433-.574-.633-.091-.094-.2-.209-.275-.279-.1-.059-.085-.063-.166.028l-.789,1.1a6.267,6.267,0,0,1-.78.981,6.312,6.312,0,0,1,.636-1.08l.748-1.135a.358.358,0,0,1,.22-.163.348.348,0,0,1,.276.083c.123.1.2.194.3.3.2.2.392.414.586.639a14.76,14.76,0,0,1,1.263,1.689l-.2.045c.192-1.276.125-2.15.18-2.152" transform="translate(-27.736 -82.183)" fill="#263238"/>
        <path id="Path_44866" data-name="Path 44866" d="M14.9,162.5a5.453,5.453,0,0,1-.664-.788,8.686,8.686,0,0,0-1.754-1.7,5.738,5.738,0,0,0-2.251-.88,7.866,7.866,0,0,1-1.015-.155,2.982,2.982,0,0,1,1.039-.019,5.181,5.181,0,0,1,2.366.849,7.225,7.225,0,0,1,1.754,1.8,3.578,3.578,0,0,1,.525.894" transform="translate(-4.84 -83.452)" fill="#263238"/>
        <path id="Path_44867" data-name="Path 44867" d="M68.514,175.14a23.9,23.9,0,0,1-1.457-4.635,23.926,23.926,0,0,1,1.457,4.635" transform="translate(-35.206 -89.531)" fill="#263238"/>
        <path id="Path_44868" data-name="Path 44868" d="M78.909,224.375a4.345,4.345,0,0,1,.1.938c.038.578.1,1.378.14,2.266a14.963,14.963,0,0,1-.047,2.282,2.644,2.644,0,0,1-.2.927,5.65,5.65,0,0,1,.028-.94c.025-.577.013-1.374-.026-2.259s-.075-1.688-.067-2.272a3.081,3.081,0,0,1,.079-.943" transform="translate(-41.392 -117.817)" fill="#263238"/>
        <path id="Path_44869" data-name="Path 44869" d="M37.961,187.2a.576.576,0,1,0,.142-.108" transform="translate(-19.859 -98.209)" fill="#e0e0e0"/>
        <g id="Group_31530" data-name="Group 31530" transform="translate(11.258 82.665)" opacity="0.3">
          <g id="Group_31529" data-name="Group 31529">
            <g id="Group_31528" data-name="Group 31528" clip-path="url(#clip-path-28)">
              <path id="Path_44870" data-name="Path 44870" d="M23.7,174.065l3,8.889,9.893-1.779-9.538,3.738L26.26,188Z" transform="translate(-23.705 -174.065)"/>
            </g>
          </g>
        </g>
        <g id="Group_31533" data-name="Group 31533" transform="translate(12.503 71.972)" opacity="0.3">
          <g id="Group_31532" data-name="Group 31532">
            <g id="Group_31531" data-name="Group 31531" clip-path="url(#clip-path-29)">
              <path id="Path_44871" data-name="Path 44871" d="M26.327,151.549l8.847,8.018,1.368-3.74,1.434.477-1.533-1.27s-1.68,2.583-2.13,2.629Z" transform="translate(-26.327 -151.549)"/>
            </g>
          </g>
        </g>
        <path id="Path_44872" data-name="Path 44872" d="M56.817,176.807a2.5,2.5,0,0,1-.18-.539l-.418-1.486c-.353-1.254-.86-2.98-1.483-4.866s-1.248-3.574-1.712-4.791l-.55-1.441a2.537,2.537,0,0,1-.177-.54,2.536,2.536,0,0,1,.265.5c.157.33.37.813.624,1.414.507,1.2,1.158,2.886,1.785,4.779s1.107,3.631,1.417,4.9c.155.634.272,1.149.342,1.507a2.512,2.512,0,0,1,.087.562" transform="translate(-27.459 -85.664)" fill="#263238"/>
        <path id="Path_44873" data-name="Path 44873" d="M61.3,169.707c1.674,1.67,5.911,6.019,5.911,6.019l1.135-.684-5.972-6.373a.747.747,0,1,0-1.073,1.039" transform="translate(-32.074 -88.442)" fill="#263238"/>
        <path id="Path_44874" data-name="Path 44874" d="M64.081,185.857l1.424-4.009a2.253,2.253,0,0,1,2.053-1.54,1.911,1.911,0,0,1,.216.01c.852.095,5.207.379,5.207.379l1.685,1.888a.873.873,0,0,1,.019,1.141l.484,3.408-.957.648.095,2.382s-.852.568-1.231.379l-.379-.189-.568-.568-1.609,2.272-2.226,1.287Z" transform="translate(-33.648 -94.678)" fill="#a76c4e"/>
        <path id="Path_44875" data-name="Path 44875" d="M80.108,185.95a6.98,6.98,0,0,0-.61-.663,2.838,2.838,0,0,0-.813-.491,6.362,6.362,0,0,0-1.178-.16,19.934,19.934,0,0,1-3.109-.416,19.967,19.967,0,0,1,3.132.17,5.451,5.451,0,0,1,1.23.191,2.669,2.669,0,0,1,.855.577,1.425,1.425,0,0,1,.492.792" transform="translate(-39.066 -96.719)" fill="#76472f"/>
        <path id="Path_44876" data-name="Path 44876" d="M80.452,191.347a6.657,6.657,0,0,0-.35-.872,3.4,3.4,0,0,0-1.684-1.411,6.394,6.394,0,0,0-2.227-.374,5.12,5.12,0,0,1-.959-.031,2.963,2.963,0,0,1,.956-.143,5.533,5.533,0,0,1,2.321.319,3.286,3.286,0,0,1,1.747,1.559,1.509,1.509,0,0,1,.2.954" transform="translate(-39.503 -98.981)" fill="#76472f"/>
        <path id="Path_44877" data-name="Path 44877" d="M80.3,197.163a1.846,1.846,0,0,1-.227-.939,3.124,3.124,0,0,0-.214-.976,1.208,1.208,0,0,0-.894-.679,16.82,16.82,0,0,0-2.268-.327,2.556,2.556,0,0,1-.941-.219,7,7,0,0,1,.957.045,11.168,11.168,0,0,1,2.317.263,1.808,1.808,0,0,1,.638.293,1.294,1.294,0,0,1,.4.533,2.934,2.934,0,0,1,.18,1.056c0,.593.081.939.053.952" transform="translate(-39.778 -101.873)" fill="#76472f"/>
        <path id="Path_44878" data-name="Path 44878" d="M69.556,184.8,50.778,204.193l.723.732,13.454-1.515,18.1-17.245-.02-.83Z" transform="translate(-26.663 -97.036)" fill="#455a64"/>
        <g id="Group_31536" data-name="Group 31536" transform="translate(37.329 99.033)" opacity="0.3">
          <g id="Group_31535" data-name="Group 31535">
            <g id="Group_31534" data-name="Group 31534" clip-path="url(#clip-path-30)">
              <path id="Path_44879" data-name="Path 44879" d="M85.381,209.448a3.523,3.523,0,0,0-2.711-.908A4.973,4.973,0,0,0,80,209.67a3.6,3.6,0,0,0-1.331,1.906,3.252,3.252,0,0,0,1.793,3.4l.17-.194,4.626-3.714a1.3,1.3,0,0,0,.535-.683,1.079,1.079,0,0,0-.407-.935" transform="translate(-78.601 -208.529)"/>
            </g>
          </g>
        </g>
        <path id="Path_44880" data-name="Path 44880" d="M83.52,206.646a8.973,8.973,0,0,1,2.414.332,16.355,16.355,0,0,1,2.225,2.035s0,1.184-.473,1.231a4.464,4.464,0,0,1,.095.8,1.328,1.328,0,0,1-.757,1.609s.095,1.089-.237,1.373a6.751,6.751,0,0,1-.71.521s-1.041,1.278-1.657,1.183-1.5.663-1.5.663-3.345-1.386-2.992-1.779l1.155-1.285s-2.292-1.67-2.245-2.19.237-.568.237-.568-.095-.994.71-1.089c0,0,.615-1.231,1.231-1.278a36.737,36.737,0,0,1,4.781,1.468L84.23,208.35s-1.562-.237-1.515-.757.8-.947.8-.947" transform="translate(-41.394 -108.508)" fill="#a76c4e"/>
        <path id="Path_44881" data-name="Path 44881" d="M83.442,217.509a23.075,23.075,0,0,1-2.113-1.026,23.232,23.232,0,0,1-2.118-1.017,11.06,11.06,0,0,1,4.231,2.044" transform="translate(-41.593 -113.134)" fill="#76472f"/>
        <path id="Path_44882" data-name="Path 44882" d="M86.773,214.513a16.5,16.5,0,0,1-2.716-.881,16.611,16.611,0,0,1-2.631-1.113,16.617,16.617,0,0,1,2.717.881,16.592,16.592,0,0,1,2.63,1.112" transform="translate(-42.756 -111.588)" fill="#76472f"/>
        <path id="Path_44883" data-name="Path 44883" d="M83.782,187.123a1.218,1.218,0,0,1-.247.014h-.717l-2.692-.031-9.36-.18.086-.036-4.705,4.879-9.755,10.042-2.977,3.023-.818.813a2.449,2.449,0,0,1-.3.272,2.516,2.516,0,0,1,.262-.307l.785-.845,2.92-3.078,9.7-10.092,4.716-4.869.036-.037h.051l9.358.269,2.69.1.716.036a1.2,1.2,0,0,1,.247.026" transform="translate(-27.461 -98.031)" fill="#263238"/>
        <path id="Path_44884" data-name="Path 44884" d="M65.083,104.876a3.574,3.574,0,0,0-2.309-1.186,2.262,2.262,0,0,0-1.5.114,1.789,1.789,0,0,0-.767,1.728,7.18,7.18,0,0,0,.574,1.906,3.434,3.434,0,0,1,.272,1.95l1.7,4.061a2.151,2.151,0,0,0,1.1-3.1,2.077,2.077,0,0,0,.614-3.152,1.624,1.624,0,0,0,.311-2.325" transform="translate(-31.768 -54.409)" fill="#263238"/>
        <path id="Path_44885" data-name="Path 44885" d="M28.979,119.256q-.1-4.105-.2-8.21l-5.193-.237a1.736,1.736,0,0,0-.624,3.065,2.136,2.136,0,0,0,.309,4.007,2.145,2.145,0,0,0,1.38,3.469,2.357,2.357,0,0,0,1.469,2.279,2.256,2.256,0,0,0,2.464-1.365,6.583,6.583,0,0,0,.4-3.008" transform="translate(-11.395 -58.185)" fill="#263238"/>
        <path id="Path_44886" data-name="Path 44886" d="M25.366,104.707s.512,6.788,1.176,8.859a21.1,21.1,0,0,0,2.13,4.3l15.844-4.919a50.691,50.691,0,0,0,.864-10.239l-5.054-1.8Z" transform="translate(-13.319 -52.988)" fill="#263238"/>
        <path id="Path_44887" data-name="Path 44887" d="M30.519,112.713a33.536,33.536,0,0,1-1.542-5.587,11.731,11.731,0,0,1,.377-5.731c.1-.276.943-2.133,1.235-2.108.209.018-.3,1.745-.195,1.925A9.947,9.947,0,0,1,31.6,107a26.218,26.218,0,0,1-1.078,5.716" transform="translate(-15.119 -52.135)" fill="#263238"/>
        <path id="Path_44888" data-name="Path 44888" d="M43.082,122.043s0-4.6.009-4.6,4.681-.541,4.921-5.191c.115-2.246-.023-6.89-.2-11.092a8.672,8.672,0,0,0-8.328-8.306l-.449-.018c-4.851.093-7.481,4.265-7.254,9.111L31.772,117.7l9.592,6.916Z" transform="translate(-16.683 -48.75)" fill="#a76c4e"/>
        <path id="Path_44889" data-name="Path 44889" d="M48.989,142.411A11.242,11.242,0,0,1,43,140.383s1.344,3.441,6,3.2Z" transform="translate(-22.58 -73.714)" fill="#76472f"/>
        <path id="Path_44890" data-name="Path 44890" d="M60.891,118.054a.664.664,0,0,1-.667.645.635.635,0,0,1-.661-.625.665.665,0,0,1,.666-.646.636.636,0,0,1,.662.626" transform="translate(-31.276 -61.66)" fill="#263238"/>
        <path id="Path_44891" data-name="Path 44891" d="M60.4,113.521c-.086.084-.574-.309-1.289-.335s-1.253.311-1.327.22c-.037-.04.054-.193.288-.351a1.827,1.827,0,0,1,1.067-.284,1.753,1.753,0,0,1,1.022.375c.213.178.282.337.239.374" transform="translate(-30.338 -59.215)" fill="#263238"/>
        <path id="Path_44892" data-name="Path 44892" d="M47.4,118.291a.665.665,0,0,1-.667.645.635.635,0,0,1-.661-.625.664.664,0,0,1,.666-.645.636.636,0,0,1,.662.626" transform="translate(-24.191 -61.785)" fill="#263238"/>
        <path id="Path_44893" data-name="Path 44893" d="M45.634,113.554c-.086.084-.575-.309-1.29-.335s-1.252.311-1.326.22c-.037-.04.053-.193.288-.35a1.82,1.82,0,0,1,1.067-.284,1.757,1.757,0,0,1,1.022.374c.212.178.281.337.239.374" transform="translate(-22.584 -59.232)" fill="#263238"/>
        <path id="Path_44894" data-name="Path 44894" d="M53.368,119.56a4.719,4.719,0,0,1,1.169-.164c.183-.012.358-.041.393-.165a.934.934,0,0,0-.1-.546l-.485-1.411a23.937,23.937,0,0,1-1.07-3.683,23.937,23.937,0,0,1,1.364,3.588c.161.5.316.967.463,1.419a1.057,1.057,0,0,1,.066.72.458.458,0,0,1-.311.256,1.25,1.25,0,0,1-.312.031,4.651,4.651,0,0,1-1.177-.045" transform="translate(-27.969 -59.646)" fill="#263238"/>
        <path id="Path_44895" data-name="Path 44895" d="M48.866,127.028c.116,0,.088.774.73,1.351s1.472.523,1.474.632c.009.049-.19.143-.54.14a1.936,1.936,0,0,1-1.232-.484,1.684,1.684,0,0,1-.562-1.13c-.017-.325.077-.514.13-.508" transform="translate(-25.59 -66.701)" fill="#263238"/>
        <path id="Path_44896" data-name="Path 44896" d="M45.606,108.557c-.078.192-.788.072-1.631.14-.844.051-1.53.271-1.634.092-.047-.085.078-.264.36-.441a2.845,2.845,0,0,1,2.488-.176c.3.136.452.295.418.386" transform="translate(-22.228 -56.691)" fill="#263238"/>
        <path id="Path_44897" data-name="Path 44897" d="M60.192,108.449c-.132.158-.618-.03-1.21-.061-.59-.052-1.1.066-1.206-.108-.047-.085.038-.244.263-.389a1.754,1.754,0,0,1,1.947.137c.2.175.265.345.206.422" transform="translate(-30.331 -56.53)" fill="#263238"/>
        <path id="Path_44898" data-name="Path 44898" d="M28.8,119.1c-.078-.038-3.159-1.07-3.182,2.114s3.179,2.55,3.185,2.459,0-4.572,0-4.572" transform="translate(-13.451 -62.439)" fill="#a76c4e"/>
        <path id="Path_44899" data-name="Path 44899" d="M28.73,123.593c-.014-.01-.056.038-.15.081a.554.554,0,0,1-.415.005,1.372,1.372,0,0,1-.626-1.236,1.827,1.827,0,0,1,.161-.793.641.641,0,0,1,.42-.423.282.282,0,0,1,.326.154c.042.089.021.153.038.158s.069-.053.044-.184a.353.353,0,0,0-.124-.2.419.419,0,0,0-.306-.083.778.778,0,0,0-.583.489,1.886,1.886,0,0,0-.2.886,1.441,1.441,0,0,0,.8,1.381.6.6,0,0,0,.508-.081c.1-.078.116-.149.105-.155" transform="translate(-14.344 -63.572)" fill="#76472f"/>
        <path id="Path_44900" data-name="Path 44900" d="M44.33,95.274c.515-.284-1.034-1.951-2.3-2.524-1.915-.866-4.839-1.4-6.6-.892a7.672,7.672,0,0,0-4.951,3.6,12.523,12.523,0,0,0-1.4,6.4,3.8,3.8,0,0,0,.452,1.945c.446.7,1.3,1.145,1.264,2.117a1.33,1.33,0,0,0,.332.971c.583.619,1.3.036,1.622-.549a9.223,9.223,0,0,0,.833-4.166,9.319,9.319,0,0,0-.207-3.028c-.156-.531-.407-1.032-.535-1.57a1.913,1.913,0,0,1,.223-1.59,2,2,0,0,1,.258-.262,3.319,3.319,0,0,1,3.293-.633c1.794.631,4.858,1.574,5.657.964A4.9,4.9,0,0,0,43.7,94.607Z" transform="translate(-15.266 -48.131)" fill="#263238"/>
        <path id="Path_44901" data-name="Path 44901" d="M32.338,85.1c-.225.024-5.673,1.064-7.16,5.046s-1.132,5.233-1.132,5.233a2.632,2.632,0,0,0-.581.467c-.234.256.052,1.537.763,1.417,5.36-2.16,11.619-2.186,18.576-1.737l5.335.113c1.487.223,2.025-.155,1.408-.551-.473-.3-4.654-2.147-4.654-2.147l-.812-.635-2.1-3.127s.286-.416-.24-.788-4.971-3.757-9.4-3.29" transform="translate(-12.28 -44.66)" fill="#0078a5"/>
        <path id="Path_44902" data-name="Path 44902" d="M44.782,100.125s-.072,0-.208-.006l-.595-.033c-.515-.039-1.264-.058-2.188-.069a41.279,41.279,0,0,0-7.183.644,63.391,63.391,0,0,0-7.021,1.689c-.888.259-1.6.483-2.1.634l-.569.174c-.131.039-.2.055-.2.055s.066-.028.195-.072l.565-.19c.492-.161,1.2-.4,2.089-.662a59.178,59.178,0,0,1,7.023-1.717,39.469,39.469,0,0,1,7.2-.618c1.852.027,2.991.17,2.991.17" transform="translate(-12.98 -52.484)" fill="#263238"/>
        <g id="Group_31539" data-name="Group 31539" transform="translate(15.041 41.488)" opacity="0.3">
          <g id="Group_31538" data-name="Group 31538">
            <g id="Group_31537" data-name="Group 31537" clip-path="url(#clip-path-31)">
              <path id="Path_44903" data-name="Path 44903" d="M31.671,88.517s5.859-.747,8.426.6l-.3-.162,2.429,1.167a1.551,1.551,0,0,0,1.3.2,11.568,11.568,0,0,0-3.687-2.133c-2.41-.906-6.269-1.391-8.172.336" transform="translate(-31.671 -87.36)"/>
            </g>
          </g>
        </g>
        <path id="Path_44904" data-name="Path 44904" d="M31.491,88.505a4.1,4.1,0,0,1,.533-.324,7.239,7.239,0,0,1,1.587-.616,8.634,8.634,0,0,1,2.509-.274,7.247,7.247,0,0,1,3,.694,13.116,13.116,0,0,1,1.385.807c.43.288.857.542,1.243.826a7.875,7.875,0,0,0,1.107.755,2.525,2.525,0,0,0,1.118.265c1.431.067,2.32-.2,2.259-.292a.226.226,0,0,1-.118.11,1.863,1.863,0,0,1-.445.133,7.8,7.8,0,0,1-1.7.113,2.567,2.567,0,0,1-1.148-.262,7.7,7.7,0,0,1-1.122-.755c-.38-.277-.812-.532-1.241-.818a13.172,13.172,0,0,0-1.377-.8,7.254,7.254,0,0,0-2.968-.691,8.77,8.77,0,0,0-2.49.253,7.687,7.687,0,0,0-1.587.586c-.179.089-.316.164-.407.218s-.143.075-.143.075" transform="translate(-16.536 -45.833)" fill="#263238"/>
        <g id="Group_31542" data-name="Group 31542" transform="translate(12.07 45.18)" opacity="0.3">
          <g id="Group_31541" data-name="Group 31541">
            <g id="Group_31540" data-name="Group 31540" clip-path="url(#clip-path-32)">
              <path id="Path_44905" data-name="Path 44905" d="M25.68,97.1a13.093,13.093,0,0,0,2.891-.408c1.113-.2,2.215-.359,3.317-.616a4.845,4.845,0,0,0,2.384-.943,1.208,1.208,0,0,1-.407,1.117,5.829,5.829,0,0,1-1.8.723,30.709,30.709,0,0,1-6.652,1.054,7.233,7.233,0,0,1,.265-.928" transform="translate(-25.415 -95.134)"/>
            </g>
          </g>
        </g>
        <path id="Path_44906" data-name="Path 44906" d="M26.3,94.117c-.672.265-1.084.445-1.122,1.007-.032.469.044,1.046.5,1.144a1.156,1.156,0,0,0,.427-.017l7.26-1.209a1.072,1.072,0,0,0,.673-.284.73.73,0,0,0-.217-1,2,2,0,0,0-1.1-.283,24.011,24.011,0,0,0-6.429.642" transform="translate(-13.216 -49.07)" fill="#0078a5"/>
        <path id="Path_44907" data-name="Path 44907" d="M34.612,94.56a.691.691,0,0,0,.2-.308.9.9,0,0,0-.265-.92,2.242,2.242,0,0,0-1.439-.37c-.579.009-1.217.028-1.885.071a19.153,19.153,0,0,0-3.385.483c-.426.1-.765.208-1,.281l-.269.087a.417.417,0,0,1-.1.025.4.4,0,0,1,.089-.042l.264-.1c.231-.084.569-.2.995-.309a17.566,17.566,0,0,1,3.4-.511c.67-.043,1.308-.059,1.89-.064a2.274,2.274,0,0,1,1.482.405.935.935,0,0,1,.256.978.613.613,0,0,1-.155.24.316.316,0,0,1-.082.057" transform="translate(-13.903 -48.77)" fill="#263238"/>
        <path id="Path_44908" data-name="Path 44908" d="M58.916,95.522l-4.534-.248.34,1.291,4.936.063Z" transform="translate(-28.556 -50.027)" fill="#fff"/>
        <path id="Path_44909" data-name="Path 44909" d="M49.192,102.793c0-.025,2.03-.245,4.539-.492s4.546-.427,4.548-.4-2.029.245-4.539.492-4.545.427-4.548.4" transform="translate(-25.83 -53.505)" fill="#263238"/>
        <rect id="Rectangle_81156" data-name="Rectangle 81156" width="34.891" height="5.825" transform="translate(3.616 113.373)" fill="#455a64"/>
        <path id="Path_44910" data-name="Path 44910" d="M22.735,264.316H13.15a3.286,3.286,0,0,1-3.286-3.286V244.654H26.02V261.03a3.286,3.286,0,0,1-3.286,3.286" transform="translate(-5.179 -128.465)" fill="#455a64"/>
        <path id="Path_44911" data-name="Path 44911" d="M25.9,249.2a6.982,6.982,0,0,1-.066-1.011,11.657,11.657,0,0,0-.357-2.708,1.8,1.8,0,0,0-.418-.752,4.391,4.391,0,0,0-.76-.6,4.853,4.853,0,0,0-2.024-.64c-1.517-.112-3.223-.062-5-.045a30.11,30.11,0,0,0-4.978.183,3.258,3.258,0,0,0-1.854.937,3.212,3.212,0,0,0-.589,1.725c-.107,1.15-.083,2.1-.107,2.749-.009.3-.016.551-.022.75a1.041,1.041,0,0,1-.025.262,1.064,1.064,0,0,1-.025-.262c-.006-.2-.014-.447-.024-.75-.006-.652-.058-1.594.029-2.767a3.354,3.354,0,0,1,.6-1.837,3.439,3.439,0,0,1,1.965-1.031,10.751,10.751,0,0,1,2.431-.209c.838.015,1.7.013,2.593,0,1.78-.016,3.469-.061,5.025.066a5.022,5.022,0,0,1,2.106.692,4.536,4.536,0,0,1,.788.636,1.971,1.971,0,0,1,.45.835,10.644,10.644,0,0,1,.286,2.758c0,.3-.009.551-.012.751a1.2,1.2,0,0,1-.018.262" transform="translate(-5.059 -127.691)" fill="#263238"/>
        <path id="Path_44912" data-name="Path 44912" d="M26.089,259.356c0,.068-3.553.124-7.935.124s-7.935-.055-7.935-.124,3.552-.123,7.935-.123,7.935.055,7.935.123" transform="translate(-5.366 -136.12)" fill="#263238"/>
        <path id="Path_44913" data-name="Path 44913" d="M19.465,272.25c-.068,0-.123-2.873-.123-6.416s.055-6.417.123-6.417.123,2.872.123,6.417-.055,6.416-.123,6.416" transform="translate(-10.156 -136.217)" fill="#263238"/>
        <path id="Path_44914" data-name="Path 44914" d="M34.8,272.255c-.068,0-.123-2.847-.123-6.358s.055-6.359.123-6.359.123,2.847.123,6.359-.055,6.358-.123,6.358" transform="translate(-18.209 -136.281)" fill="#263238"/>
        <path id="Path_44915" data-name="Path 44915" d="M79.731,238.724l2.012,2.816s1.8,16.781,1,17.555-3.5.773-3.5.773l-.738-20.1Z" transform="translate(-41.223 -125.351)" fill="#455a64"/>
        <path id="Path_44916" data-name="Path 44916" d="M67.488,244.239a18.238,18.238,0,0,1-.076-5.662,152.094,152.094,0,0,1,.076,5.662" transform="translate(-35.3 -125.274)" fill="#263238"/>
        <path id="Path_44917" data-name="Path 44917" d="M79.964,238.917a3.424,3.424,0,0,1,.216.944,22.82,22.82,0,0,1,.239,2.319,4.776,4.776,0,0,1-.053,1.306,1.646,1.646,0,0,1-.545.943,1.129,1.129,0,0,1-.68.277c-.177,0-.266-.043-.263-.056a1.35,1.35,0,0,0,.827-.352,1.538,1.538,0,0,0,.438-.859,5.171,5.171,0,0,0,.029-1.246c-.095-1.806-.278-3.265-.208-3.276" transform="translate(-41.418 -125.453)" fill="#263238"/>
      </g>
    </g>
    <g id="Group_31546" data-name="Group 31546">
      <g id="Group_31545" data-name="Group 31545" clip-path="url(#clip-path)">
        <path id="Path_44919" data-name="Path 44919" d="M411.711,220.677s-.022-.076-.068-.217l-.2-.626-.788-2.41-.037.039h.005a.03.03,0,0,0,.022-.056,9.749,9.749,0,0,1-3.462-3.327,9.529,9.529,0,0,1-.692-1.335,10.912,10.912,0,0,1-.493-1.529,9.68,9.68,0,0,1,16.352-9.011,9.857,9.857,0,0,1,2.289,3.822,9.535,9.535,0,0,1,.365,4.18,9.719,9.719,0,0,1-3.587,6.336l-.33.253a2.663,2.663,0,0,1-.335.234l-.68.419a13.6,13.6,0,0,1-1.379.623,9.717,9.717,0,0,1-4.752.477.029.029,0,0,0-.024.008l-1.634,1.567-.424.409c-.1.093-.145.143-.145.143s.048-.041.142-.128l.426-.394,1.675-1.555-.024.008a9.709,9.709,0,0,0,4.791-.45,13.532,13.532,0,0,0,1.394-.622l.689-.42a2.632,2.632,0,0,0,.34-.235l.335-.254a9.809,9.809,0,0,0,3.647-6.4,9.646,9.646,0,0,0-.363-4.236,9.976,9.976,0,0,0-2.317-3.877,9.746,9.746,0,0,0-4.014-2.5,4.348,4.348,0,0,0-.571-.163l-.575-.141-.583-.086a4.071,4.071,0,0,0-.582-.062l-.583-.029c-.194-.015-.387.012-.58.016s-.386.012-.576.036l-.568.085a9.666,9.666,0,0,0-4.093,1.685,9.783,9.783,0,0,0-3.828,10.289,11.077,11.077,0,0,0,.5,1.543,9.593,9.593,0,0,0,.7,1.344,9.738,9.738,0,0,0,3.511,3.331l.022-.056h-.005a.03.03,0,0,0-.037.021.032.032,0,0,0,0,.018l.831,2.418.213.613c.047.137.073.2.073.2" transform="translate(-212.983 -104.56)" fill="#263238"/>
      </g>
    </g>
  </g>
</svg>
