<svg xmlns="http://www.w3.org/2000/svg" width="86" height="86" viewBox="0 0 86 86">
  <g id="Group_12846" data-name="Group 12846" transform="translate(0.5 0.5)">
    <g id="Group_12160" data-name="Group 12160">
      <path id="Path_32117" data-name="Path 32117" d="M42.5,0A42.5,42.5,0,1,1,0,42.5,42.5,42.5,0,0,1,42.5,0Z" fill="#86deff" stroke="rgba(0,0,0,0)" stroke-width="1" opacity="0.458"/>
    </g>
    <g id="pending_icon_warning" data-name="pending icon warning" transform="translate(20.997 21.5)">
      <path id="Path_34174" data-name="Path 34174" d="M306.79-131.284,306.4-146.5l2.387-.006-.294,15.218Zm2.861,4.377a2.033,2.033,0,0,0-2.031-2.031,2.032,2.032,0,0,0-2.031,2.031,2.032,2.032,0,0,0,2.031,2.031A2.033,2.033,0,0,0,309.651-126.908Zm-1.705,0c0,.36-.653.36-.653,0a.328.328,0,0,1,.327-.327A.328.328,0,0,1,307.945-126.908Zm-.639,14.134a21.064,21.064,0,0,0,21-21,1.188,1.188,0,0,0-1.185-1.185,1.188,1.188,0,0,0-1.185,1.185,18.681,18.681,0,0,1-18.632,18.632,18.683,18.683,0,0,1-18.632-18.63A18.685,18.685,0,0,1,307.306-152.4a1.187,1.187,0,0,0,1.185-1.185,1.188,1.188,0,0,0-1.185-1.185,21.061,21.061,0,0,0-21,21,21.059,21.059,0,0,0,21,21Z" transform="translate(-286.304 154.774)" fill="#86deff" stroke="rgba(0,0,0,0)" stroke-width="1"/>
    </g>
  </g>
</svg>
